<?xml version="1.0" encoding="UTF-8"?>
<svg version="1.1" viewBox="0 0 2048 1967" width="153" height="147" xmlns="http://www.w3.org/2000/svg">
<path transform="translate(0)" d="m0 0h2048v1967h-2048z" fill="#FDFDFD"/>
<path transform="translate(1011,298)" d="m0 0 15 1 18 4 12 5 6 3 11 7 13 12 7 8 9 15 4 9 4 18 1 6v25l-3 14-7 16-6 10-12 14-17 12-13 7-3 4v51h-2l-1 7-8 16-3 4h-2l-3 9-1 2h-4v2l2-1h6l4 1 7-9 7-7 16-7 6-1h10l14 5 6 3 7 6 11 15 1 3 4 2 5 1 8-4 12-11 8-7 9-12 10-17 8-18 5-15 8-29 7-21 9-17 11-12 15-10 12-5 11-2h18l22 4 21 6 21 7 31 13 26 12 17 10 7 3v2l6 2 18 10 34 18 25 13 28 13 23 9 50 17 46 13 27 7 38 8 32 5 34 4h15l-5 6-8 7-13 12-10 9-11 9-12 10-14 11-12 9-13 10-17 12-14 10-27 18-7 4-30 20-11 6-9 6-24 13-16 8-5 2-5-1-16-6-14-7-17-8-9-6-16-8-23-14-35-21-14-8-15-10-16-10-10-7-20-13-19-12-16-11-27-21-11-7-2-4 2-10 5-9 8-12 4-3 10 3 17 12 19 11 29 15 35 17 32 14 27 10 49 15 59 17 24 6h5l-15-7-30-12-64-26-29-13-38-19-23-11-38-19-19-11-17-10-13-8-9-6-5-5v-7l4-5 14-10 4-2h19l17 3 31 9 35 11 33 10 91 26 40 10 31 5-20-6-24-7-22-8-16-5-43-13-36-12-30-11-32-13-18-7-23-7-14-3-8-1h-15l-11 4-11 8-14 14-10 15-5 8-11 23-6 11-6 10-6 8-7 9h-2l-2 4-8 8h-2v2l-4 3h-2v2l-4 1v2l-4 1v2l-16 8-15 6-23 6-20 3-13 1h-19l-19-2-9-4-1-1h-6l-2 4 1 11-1 43-1 26-3 164-1 39v30 4 12l23 12 26 10 42 15 18 8 11 8 9 10 8 13 5 10 5 16 1 6v21l-4 13-4 8 14 2 175 1h243l45-1v-380l4-5 23-15 13-10 11-8h3l1 417 2 1 222 1v48h-2v4l-3 1h-290l-207-1-35-1h-21l-79-1-98 1-19 1-73 1h-253l-97-1h-267l-89-1-26 1-150 1h-118l-13-1-1-51 130-1 57-1 38-1v-309l1-109h2v2l5 2 10 8 13 10 22 16 1 2 1 370 1 7 1 3h231l212-1 33-1 1-1v-10l-4-21v-9l3-16 5-13 8-14 10-13 3-2h9l8 3 21 7 26 10 30 11 15 5-3 2-15 6-39 15-5 3 1 5 5 6 3 1v2l5 2 23 12 16 7 12 1 4-2v-52l-1-15-1-4-4-1-12-6-13-5-20-8-33-11-42-12-16-8-12-7-13-12-12-13-10-14-6-12-5-15-3-15v-19l3-17 3-10 7-17 12-18 14-15 15-10 12-6 40-14 10-3 10-4 16-8 8-9 11-19 6-11 8-16 5-12 3-4-1 37v79l-1 43-8 3-35 10-18 6-12 5-6 4-10 9-3 5v9l4 5 10 7 17 8 28 11 45 15h7l-1-95-1-113-1-35-2-34-1-10v-14l1-6-2-7h-7l-7 2-3 2-5 1h-41l-20-2-17-4-15-5-17-8-16-10-13-12-12-12-12-17-10-18-7-12-6-12-12-19-9-11-14-11-7-3-5-1h-16l-22 4-20 6-15 5-24 10-15 6-19 7-25 8-22 6-26 9-19 5-33 11-47 14h7l40-8 31-8 41-12 45-12 45-14 15-5 35-10 17-3 19-1 9 3 11 10 5 9-1 5h-2v2l-14 8-11 6h-2v2h-3v2l-18 10h-2v2l-24 12h-2v2l-20 9-15 8-23 11-36 18-36 15-29 11-25 10-22 8-13 5-1 2 18-3 37-10 36-10 35-11 26-9 20-8 11-5 26-12 32-16 21-11 13-8 11-7 11-8 7-1 5 2 7 11 6 11 4 7 2 5 11 13 7 8 5 6 5 5 7 6v2l5 2 8 6v2l5 2 23 12 19 8 18 6 24 5 21 3 15 1-1 9-3 4h-2l-2 4-9 13-3 4h-2l-2 5h-2l-2 4-7 8-9 9-6 5h-2v2l-6 4-5 5-12 9-5 5-12 8-5 2v2h-3v2h-3v2l-5 1v2l-16 8-23 11-32 8 2-4 9-12 10-13 9-12 6-9 13-21 9-17 7-19 4-12 2-9-5 5-10 16-4 8h-2l-2 5-12 18h-2l-2 5-8 10-9 12-6 7-9 11-4 5-9 9h-2l-2 4-12 9-9 6-8 4-15 4-9 1h-31l-27-2-9-2v-3l18-14 12-9 17-16 13-12 18-18 7-8 12-15 7-11 14-20 6-10 4-7 1-4-5 5-7 8-10 13-12 14-4 6h-2l-2 4-11 12-8 7h-2v2l-7 5-5 5-3 1v2l-6 4h-2l-1 3-5 2v2l-9 6-5 2v2h-3v2l-5 3-11 7-20 11-16 8-9 2-17-5-18-6-12-5-23-11-9-6 5-5 31-19 16-10 8-4 11-7 16-10 14-9 13-9 9-5 9-6 16-10 14-9 15-11 11-7 8-6 9-6 10-7 32-22 11-11 5-7-4-7-5 2-10 7h-2v3l-6 4-12 9h-2v2l-6 4-10 7-4 3h-2v2l-9 5-4 3h-2v2l-16 9-4 4h-3v2l-11 6-12 9-4 1v2l-8 4-9 6h-2v2l-14 7-13 8-10 6h-2v2h-3v2l-7 2v2l-11 6-10 6-8 4h-2v2l-10 5-10 3v2l-24 10-14 6h-6l-16-8-13-7-28-17-20-12-5-4-9-5-30-20-19-13-16-12-13-9v-2l-5-2-2-1v-2l-4-2-11-8-14-12-11-9-7-7-8-7-11-10-8-7-5-4-2-1v-2l23-1 36-4 36-6 39-9 31-8 23-7 24-7 13-5 25-9 20-9 16-8 19-9 16-8 15-8 12-6 9-5 10-6 9-5 6-4 22-12 19-9 17-7 10-4 30-10 28-7 12-2h19l16 4 16 8 10 9 7 8 9 15 7 18 10 34 5 15 9 20 6 11 10 14 7 8 4 3v2l4 2 4 4 3 1v2l10 3 3 1v-2l5-5 5-10 8-9 7-5 15-5h18l12 5 11 8 7 6 6 3-1-9-6-9v-2h-2l-7-14-2-8v-47h-2l-4-5-11-8-16-13-11-13-10-15-5-14-3-13v-18l5-23 4-13 10-16 9-10 8-8 16-11 9-5 18-5z" fill="#707073"/>
<path transform="translate(1628,1554)" d="m0 0h104l205 1-1 48-111 1-196 1-2 4-7 10-9 12-7 8-9 11-12 13-9 10-12 13-8 7-6 6h-2v2h-2v2l-16 14h-2v2l-9 7-12 9h-2v2l-12 8-3 1v2l-22 14-10 6-11 7-30 15-35 15-41 15-35 10-26 5-30 4-26 2-33 1h-325l-47-1-28-2-32-4-30-6-19-5-20-6-24-9-17-6-12-5-13-6-7-3-29-15-20-12-19-13-10-7-11-8-14-11-13-11-12-11-8-7-14-14-7-8-12-13-8-10-14-17-13-17-7-10-3-1-75-1-230-1v-10l1-3 1-34h838z" fill="#707073"/>
<path transform="translate(376,1243)" d="m0 0h12l16 4 9 5v2l4 2 8 7 7 10 4 8 2 6v4h2l3 15 9-9 6 1 6 9 3 5 1-9 1-38 1-17 2-2 27-1h20l18 2 11 4 4 2v2l4 2 8 7 7 8 3 6 2 6v4l24-6 13-1-1-3v-29l1-1 10-1 28-1h45l22 1 3 3-1 5h-2l-1 9-2 9 3-1 2 2-1 4-5 2-12 2-15 1-2 4-1 17-1 40-1 82-1 56-1 2h-31l-2-1-1-10v-164l-12-1-3-1h-11l-10 1-4 2-3 12-2 15h-2l-1 16-3 20-2 5-12 6-2 5 1 2 1 16 5 16 4 25 7 28 2 10v5l-2 3-1 11-2 2-29 2-7 1-32 1-2-1-40-1-8-1-2-3 1-19-1-3h-2l-3-16-18-2-1 5-6 10-5 7-8 7-5 5-12 6-13 3h-4v2l-10 1h-13l-11-3-13-10-5-4-6-1-6 5-12 3-5 5-4 3-3 1-132 1-50-1-4-1v-20l2-5-2-2-1-116v-118l1-1 10-1h30l5 3 3 8 13 54 14 69 7 29 2 5v4h3l2-9 6-20 9-39 11-49 7-31 6-20 2-3 3-1h36l1 3h2v3l2-3 11 6 7 9 2 7 3 1v2h2l3 6 3 12 2 17 1 2 2-23h2l1-10 7-14 9-10 10-7 9-3z" fill="#E4F6FB"/>
<path transform="translate(1842,1244)" d="m0 0h21l12 3 8 4 12 11 6 7 10 17 6 11 2 9-3-4-5-10-5-6-3-1-1 5h-2v26l-5 5-9 2h-11l-3-39-3-3-15-5h-4l-5 11-1 4-1 27-1 58v29l1 44h10l17-2 2-1 1-19v-20l7-1h24l9 6 6 3 3 8 3 15v18l-3 13-6 11-13 13-11 7-9 4h-3v2l-15 4-11 2h-17l-6-4-4-4-9-3-5-1-10 3-9 3-5 3-16 2-6 1h-21l-26-1h-40l-84 1h-61l-14-1-5-3-6-7-2-5v-6l6-9 1-11-1-53v-159l1-11 1-1h33l2 4 2 71 3-12 1-31 2-15 3-6 8-3h10l5-2h4v-5l2-1 12-1h14l10 2 3 4 8 32 9 38 4 15v2h2l3 3 1-81 2-13 1-1h24l6 2 8 7 4 5 3 3 6-1 2-1h6l4 4v2l6 1v-12l2-7 7-2 11-1h12l3 1 1 3 1 19 5-2 2-5 5-1 10 3 9 6 3 5 1 6 4-1 1-5 10-14 10-9z" fill="#E4F6FC"/>
<path transform="translate(859,177)" d="m0 0h358l41 4 36 6 26 6 24 7 28 10 32 13 23 11 14 7 9 5 12 7 13 8 12 8 18 13 14 11 13 11 10 9 8 7 29 29 9 11 10 11 11 14 12 16 10 15 4 8 1 6-19-1-29-4-14-3-6-3-12-11-7-8-13-13-7-8-12-13-15-15-8-7-16-13-23-16-15-10-17-10-14-8-12-6-15-7-25-11-37-13-36-9-35-5-27-2-28-1-50-1-109-1h-117l-56 1-34 1-32 2-31 4-31 6-24 7-21 7-33 13-24 11-12 7-14 7-13 8h-2v2h-3v2l-11 7-11 8-12 9-12 10h-2v2l-5 4h-2l-1 3-5 5-12 11-14 14-1 2h-2l-2 4-6 7h-2l-2 4-9 10-5 6-7 4-12 4-30 4-13 1h-14l2-4 8-14 13-19 13-16 9-10 9-11 11-12 7-8 9-9 8-7 15-14 11-9 15-12 18-13 15-10 19-12 16-9 30-15 23-10 29-10 19-6 35-9 35-6 34-3z" fill="#707073"/>
<path transform="translate(563,1603)" d="m0 0h255l76 1 34 1 1 1v9l-2 8v16l4 12 3 6 8 11 13 11 18 13 17 12 17 13 16 12 10 9 6 5 3 4v2h2l3 4v3h2l7 11 10 18-1 2-23 1h-47l-20-1v-2h2l1-6 2-4h2l1-5 3-5h2l3-9 6-10h2l1-5 2-4v-6l-14-9-2-4-9-3-4 2-5 9-5 19-6 38-3 5h-130l-30-2-35-4-26-5-25-7-26-9-27-11-15-7-19-9-13-8-9-5-11-7-19-13-11-8v-2l-4-2-8-6v-2l-4-2-12-11-8-7-23-23-7-8-15-16-7-8v-2z" fill="#FCFCFC"/>
<path transform="translate(1234,1603)" d="m0 0h290l34 1 6 1v2l-8 7-3 4h-2l-2 4-8 8-7 8-7 7-1 2h-2l-2 4-17 16-10 9-14 11-20 15-12 8-19 12-13 8-16 8-23 11-34 14-31 10-25 6-33 5-43 3-29 1h-94l-3-1-3-6-2-13-3-20-4-12-7-14-7-11-9-11-6-5-7-8-4-4v-3l-4-2-1-4-4-2-1-1v-6l2-3 5 1 7 6 5 2 1 3 4 1 6 7 2 6 12 1 15-8h2v-2l8-6 3-1 2-4 7-9 4-10 1-6v-21l-2-9v-7l6-1 45-1z" fill="#FCFCFC"/>
<path transform="translate(927,1243)" d="m0 0h10l12 2 11 5 11 8 10 12 5 7 4 9v3h2l4 16 2 9v8h2l2 13 3 6 4 11 8 5 4 9 4 15 3 4 3 1 1-16 7-52 6-44 5-22 4-4 10-2h19l5 2 6 7 1 4h2l10 26 8 27 11 54 7 36 10 66 2 20v16l-4 2-11 2-31 2-13-4-14-2-4 5h-50l-3-4v-10l-5-6-6-3-2-5-6-1-2 5-7 9-6 7-6 3-15 5-19 2-14-1v-2l-7-1-8-8-5-4-1-4 2-1 10 5h18l9-3 2-6 12-5-5 2-3 1h-8v2l-8 1h-17l-11-4v-2l-6-2-8-8-7-11-4-14-2-21-1-37v-96l4-15 6-11 11-12 7-5 9-4z" fill="#E3F5FA"/>
<path transform="translate(1251,603)" d="m0 0h2l7 8 8 7 10 9 24 18 7 5 3 1v2h3v2l5 2 15 10 16 11 4 2v2h3v2l5 2 19 12 24 15 6 3v2l5 2 6 3v2l5 2 19 12 27 16 19 11 16 10 9 6v4l-17 9-31 13-24 8h-12l-19-10-17-9-21-14-17-13-14-11-11-10-8-7-15-15-7-8-6-7v-2h-2v-2h-2l-6-8-9-11-5-4-2-1 1 4 11 16 12 18 10 13 4 5 8 11 10 11 4 5 20 20 10 9 14 10v2l5 2 10 8 7 5 1 3-10 2-10 1-25 1h-16l-19-2-15-5-16-11-11-9v-2l-4-2-11-12-7-8v-2h-2l-7-9-2-5h-2l-1-4h-2l-6-8-2-5h-2l-7-11-7-9v-3h-2l-4-7-10-16-6-9 1 10 5 16 9 22 7 12 4 8 10 16 5 7 2 1 5 9 2 1 2 4 5 4 4 4 3 5 3 6 2 1v2l-10-2-17-4-15-6-19-10-13-8-11-7-14-10-15-13-10-9-8-7-7-6-5-6-6-5-18-22-11-13-5-6v-2l40-4 17-3 18-6 19-7 17-9 10-5 14-10 13-12 8-7 7-8z" fill="#707073"/>
<path transform="translate(499,1245)" d="m0 0h20l18 2 11 4 4 2v2l4 2 8 7 7 8 3 6 2 6v4l24-6 13-1-1-3v-29l1-1 10-1 28-1h45l22 1 3 3-1 5h-2l-1 9-2 9 3-1 2 2-1 4-5 2-12 2-15 1-2 4-1 17-1 40-1 82-1 56-1 2h-31l-2-1-1-10v-164l-12-1-3-1h-11l-10 1-4 2-3 12-2 15h-2l-1 16-3 20-2 5-12 6-2 5 1 2 1 16 5 16 4 25 7 28 2 10v5l-2 3-1 11-2 2-29 2-7 1-32 1-2-1-40-1-8-1-2-3 1-19-1-3h-2l-1-6-1-30v-174l1-24 4-3z" fill="#E3F6FC"/>
<path transform="translate(1295,1243)" d="m0 0h8l10 2 11 4 13 10 9 11 6 12 2 11v13h2l1 14 2 8 5 2 2 10-1 5-1 1-7 1-19 1-1 1-24 1-1 56 41-2 2 3v3l7-2h7l8 6 5 12v4l4-1v-10l1-14v-93l1-65 6-1 26-1 2 2-3 3v19l1 45v133h59l2 3-2 4-2 9h-6v7l6 2v8l-1 1-45 1h-41l-1-23-2-3h-4l-3 11-3 3-3-1v-2h-7l-3 1-2 9-5 9-8 9-14 9-6 2-16 2h-21l-7-3-8-7-3-1v-5l4-3 1-3-4-2v-2l-4-2-14-10-7-14-2-14-1-45v-84l1-29 4-13 8-10 10-9 14-7z" fill="#E5F8FD"/>
<path transform="translate(669,408)" d="m0 0h5l-1 3-15 8-13 6-24 11-16 8-20 11h-2v2l-12 6-16 10-18 10-28 13-23 10-27 11-30 11-34 10-37 9-48 9-37 5-36 3h-23l-10-7-11-10-8-7-32-32-7-8-22-22-7-8-10-11-9-11v-3l24 6 34 6 38 5 59 6 16 1h83l28-2 48-6 41-7 29-6 34-8 25-7 26-7 42-10 37-7z" fill="#6F6F72"/>
<path transform="translate(1363,407)" d="m0 0 8 1 32 6 28 6 34 9 9 3 26 7 22 6 65 13 45 7 25 3 15 1h81l42-3 53-5 42-6 36-7 6-2h4l-2 4-11 13-13 15-9 10-11 12-39 39-8 7-10 9-10 7-5 2h-14l-37-3-39-5-36-7-37-8-34-9-29-9-26-10-13-6-27-11-26-12-6-3-18-10-19-12-25-14-23-11-14-7-17-7-15-9z" fill="#707073"/>
<path transform="translate(135,1137)" d="m0 0h18l51 1h18l61 1 13 1h8l12 1h11l11 1 639-2 23 1 5 1h24l40-2h53l50 1h280l70-1 27-1h161l31-1 38-1h93l6 1 15-1h17l9 1 1 4-1 12 2 2v5h-236l-68-1-109-1-46-1-90-1h-141l-154 1h-403l-269 1-37 1-146 2-112 1-3-1v-18l5-4z" fill="#A6A7A9"/>
<path transform="translate(106,1572)" d="m0 0 13 1 27 1h112l59-1 99-1h37l117 2h162l72-1 112-1h140l50 1h355l76-1h125l121 2h53l54-1h32l8 1 1 1v5l-3 3v5h2v7l-115-1h-27l-213-2-43-1h-398l-72 2h-41l-33-1h-12l-18-1-40-1h-50l-264 1h-126l-107-1h-255l-9-1-1-15z" fill="#B4B5B8"/>
<path transform="translate(133,1246)" d="m0 0h30l5 3 3 8 13 54 14 69 7 29 2 5v4h3l2-9 6-20 9-39 11-49 7-31 6-20 2-3 3-1h36l2 3 1 215-1 18h-29l-7-1-1-1-2-66-1-23-1-12-2 1-9 33-8 42-3 21-3 5-6 1-10-1h-16l-6-3-7-26-8-29-5-20-7-19-2-4-2-1v97l-1 6-34 1-1-1-1-116v-118l1-1z" fill="#707073"/>
<path transform="translate(1070,710)" d="m0 0h2l5 10 4 11 4 14 4 8 9 14 9 7 26 10 25 9 26 11 14 7 11 8 11 11 7 10 8 14 7 17 4 16 1 7v16l-4 23-5 14-9 15-7 9-9 10-7 7-10 7-11 7-17 8-14-3-16-5-19-8-23-10-11-5-15-6-17-7-1-2 7-4 8-4 2-4 29-10 25-10 14-7 12-7 7-8 1-2v-8l-4-6-11-7-14-7-18-7-41-14-2-1-1-6 1-64 1-75z" fill="#707073"/>
<path transform="translate(1628,1554)" d="m0 0h104l205 1v9h-2v9l-12-2-2-2h-9l-12 1h-313l-51 1h-305l-64-1h-199l-59 1-117 1h-174l-64-1h-113l-65 1-132 1h-60l-11-1h-28l-17 1-17-1-7-3 1 5-2 4-2-1-2 3v-25h837z" fill="#332F34"/>
<path transform="translate(376,1243)" d="m0 0h12l16 4 9 5v2l4 2 8 7 7 10 4 8 3 10 1 16v87l-1 37-3 19-6 9-7 9-7 6-12 6-12 3-7 1h-19l-9-3-8-6-9-13-4-11-2-12-1-20v-116l2-21 4-11 6-9 7-8 10-7 9-3z" fill="#707073"/>
<path transform="translate(454,842)" d="m0 0 4 1 4 28 6 18 9 16 5 10 11 15 14 16 9 6v2l4 2 5 2v2l6 2 17 8 19 7 30 9 27 6 21 6 18 8 13 9 8 7 10 13 7 12 5 13 7 31 1 11-5-2-7-8-9-15-8-10-10-10-17-13-13-8-15-7-24-9-13-1h-3l5 3 28 21 10 8 7 8 3 9-1 8-3 4-6 2h-19l-15-3-21-6-16-6-19-10-16-9-18-12-12-9-11-9-12-11-9-11-7-10-10-16-6-15-5-19-1-7v-29l2-19 5-21 5-12 5-5z" fill="#707073"/>
<path transform="translate(1577,843)" d="m0 0 4 2 5 7 7 22 5 30v18l-3 19-5 19-7 16-7 12-9 11-9 10-5 5h-2l-1 3-9 7h-2l-1 3-17 12-16 10-11 7-31 14-27 9-14 3h-19l-5-2-5-6-2-5 1-7 6-9 10-8h2v-2l9-7 15-10 10-6 1-2-25 6-12 3-25 12-6 4h-2v2h-3v2l-4 1v2l-5 3-4 4h-2l-1 3-7 6-7 8-10 15-5 7-6 1v-9l6-25 5-14 12-20 6-7h2l1-3 8-7 7-4 8-5 25-9 42-10 29-9 20-8 21-12 10-8 10-9 11-12 12-18 9-17 7-18 3-13 1-16z" fill="#707073"/>
<path transform="translate(1516,1246)" d="m0 0h33l2 4 2 71 3-12 1-31 2-15 3-6 8-3h10l5-2h4l2 228h17l11 1h8l-1-44v-44l3 1 4 8 6 21 5 21-1 3-4-7-4-1v-2h-2v-2h-2l-1-2-1 54 4 3 5 2 2 7 2 4-1 6-3 2-42 1h-61l-14-1-5-3-6-7-2-5v-6l6-9 1-11-1-53v-159l1-11z" fill="#E2F4F9"/>
<path transform="translate(1603,1245)" d="m0 0h14l10 2 3 4 8 32 9 38 4 15v2h2l3 3 1-81 2-13 1-1h24l6 2 1 1v232l-5 1h-22l-10-2-3-3-3-11-3-16-4-13-5-22-5-15-3-6-2-1 1 44v44l-13 1-9-1h-14l-1-1-1-108v-125l2-1z" fill="#707073"/>
<path transform="translate(499,1245)" d="m0 0h20l18 2 11 4 4 2v2l4 2 8 7 7 8 3 6 2 17v19l-2 30-2 13-5 5-6 5v18l5 40 3 14 4 34v10l-24-1-8-2-3-9-4-23-7-28-6-28-3-8-6-1-2 10v15l2 42v19l-4 5-10 6-6 2-2 1h-14l-4-2-1-4-1-30v-174l1-24 4-3z" fill="#707073"/>
<path transform="translate(877,249)" d="m0 0h123l176 1 45 2 28 3 26 5 32 8 36 12 19 8 9 4 19 9 8 5 11 6 14 8 5 4 3 1v2l5 2 7 4v2l4 2 3 1v2l5 2 7 5v2l4 2 9 7 1 3 4 2 15 14 8 7 5 5 6 7 7 8 2 2v4l-9-1-8-3-11-7-13-11-13-12-10-9-9-7-12-9-17-11-10-6-23-13-20-11-15-7-25-10-24-7-31-6-29-4-24-2-20-1-51-1-102-1h-60l-93 1-53 1-45 2-22 2-24 4-30 7-30 10-21 9-16 8-21 11-21 13-19 13-10 8-15 13-4 4h-2v2l-11 9-9 8-11 7-11 5-10 3 2-5 5-6h2l2-4 26-26 11-9 10-9 9-7 13-10 15-10 7-4 16-10 14-8 19-10 15-7 13-5 28-10 30-8 26-6 28-4 45-3z" fill="#707073"/>
<path transform="translate(927,1243)" d="m0 0h10l12 2 11 5 11 8 10 12 5 7 5 12-1 6-4 9h-3l-2 21-22-1-10-1-1-7-1-19-2-11-3-3-8-3h-5l-5 6-2 13v127l1 19 6 2h12l6-1-1-49-1-17-7-3-4-3-1-25 9-2h39l4 1 1 5 1 25v59l-2 12-7 12-7 9-7 6-12 6-10 2h-23l-12-2-8-5-9-10-5-10-3-11-2-21-1-37v-96l4-15 6-11 11-12 7-5 9-4z" fill="#707073"/>
<path transform="translate(783,1246)" d="m0 0h25l5 3 3 10 6 38 5 36 5 43 6 42 5 46 1 19h-27l-4-7-3-14-3-9-1-4-2-1h-9l-14 2-3 8-5 5-2 9v8l-4 1h-11l-3 1h-14l-1-2 3-27 10-64 12-72 6-38 4-27 3-4z" fill="#6F6F73"/>
<path transform="translate(1064,1246)" d="m0 0h19l5 2 6 7 2 6-4-2-5-5 5 21 4 28 7 36 15 95 5 40v10l-24-1-6-2v-7l-2-7-5-5-5-12-10-2h-8l-3 3-3 5-7 12h-2l-2 6-4 6-9 5h-8l-5-3-1-2v-19l10-68 10-75 6-44 5-22 4-4z" fill="#6F6F72"/>
<path transform="translate(1295,1243)" d="m0 0h8l10 2 11 4 13 10 9 11 6 12 2 11 1 13v14l-1 1-15 1h-20l-4-10-2-4-1-20-1-6-4-1h-19l-2 5-1 12v149h20l15-1v-33l-6-2v-3l5-1 14-1h19l1 1 1 13v17l-2 14-9 14-7 7-8 6-12 4-6 1h-34l-7-4-12-9-7-14-2-14-1-45v-84l1-29 4-13 8-10 10-9 14-7z" fill="#707073"/>
<path transform="translate(1842,1244)" d="m0 0h21l12 3 8 4 12 11 6 7 10 17 6 11 2 9-3-4-5-10-5-6-3-1-1 5h-2v26l-5 5-9 2h-11l-3-39-3-3-15-5h-4l-5 11-1 4-1 27-1 58v29l1 44h10l17-2 2-1 1-19v-20l7-1h24l1 1-1 37-3 12-8 11-4 4h-2v2l-12 7-16 4h-25l-10-6-7-6-7-8-5-8-2-14-1-54v-100l4-13 10-14 10-9z" fill="#707073"/>
<path transform="translate(438,1144)" d="m0 0h246l161 2 12 2 7 2 19 1h114l7 1h31l16-1h57l40-2h8l18-2 12-1 31-1 32-1h262l20 2 9 2v2l4-1 11 2 18 1 33 1h38l20 1 8-1 5 1 39-1h10l18 2 9 2 6 1-2 2h-140l-109-1-46-1-90-1h-141l-154 1h-687l-35 1h-50l2-2 9-3 9-1 11-1 25-2 6-2 17-2 21-1z" fill="#B4B5B7"/>
<path transform="translate(1628,1554)" d="m0 0h104l205 1v9h-2v9l-12-2-2-2h-9l-12 1h-313l-51 1h-305l-64-1h-199l-59 1-117 1h-174l-64-1h-113l-65 1-132 1h-60l-11-1h-28l-17 1-17-1-7-3 1 5-2 4-2-1-2 3v-15h3v2l9-2 7-3h12l8 1 32 2 3-1 21 1 3 1 1-2 7 2v-2h33l7 1 13 2 9 1 100 2 80-2 68-1h81l30-1 2-1 3 1 5-1h11l9-1h17l13-1h4 36l23 1 6 2 7 1h9l9 1h185l86-1 37-1h45l19 1h98l11-1 8 1 9-1h16l3-1 4 1 4-1 6 1 10-2 5 1 11-1 13-1h31l7-1h16 4 34l7-1h9l1 1 6-1 4 1 12 1 7 1 22 1 4 1 6-2 9-1 5 1 9-3 17-1 2 1 7-1h13l7-1 51-1h70l18-1-792-1v-1z" fill="#46444A"/>
<path transform="translate(1537,1572)" d="m0 0h66l103 3 82 1h32l80-2 20 1 1 5h-2l1 7 1 3 3 1h-3v2l-3 1-92-2h-64l-130-1-23-1-80-1h-313v-2h-23l-55-3-7-2v-2l8-1 27-1 65-2h294v-1l-64-1v-1z" fill="#B4B5B8"/>
<path transform="translate(651,1246)" d="m0 0h45l22 1 3 3-1 5h-2l-1 9-2 9 3-1 2 2-1 4-5 2-12 2-15 1-2 4-1 17-1 40-1 82-1 56-1 2-14-1-18-1-1-194-1-4-7-2-22-1-3-1-1-20-1-11 1-1 10-1z" fill="#6F6F72"/>
<path transform="translate(109,1574)" d="m0 0 4 1 5 1h28l201-2h115l25 1h326l45 1h61l10-1h42l6 4v2l-13 1-33 1-18 1h-19l-68 3-284 3-80-1-28-2-27-1h-19l-65 2-96 1h-112l-6-1v-3l7-2 12-1h11l1-3h-24l-5-1-1 3-2-4z" fill="#D1D2D2"/>
<path transform="translate(98,1555)" d="m0 0h1l1 22h3l1-8 4 1 3 1 18 1 18-1h30l10 1h57l132-1 65-1h113l64 1h174l117-1 59-1h203l60 1h305l51-1h316l13-1h5l2 2 11 2 1-8h1v38h-219l3-2 27-2 40-1 142-2 1-7h-2l-1-5 2-3h2l-1-5-8-1h-32l-54 1h-53l-121-2h-125l-76 1h-355l-50-1h-140l-184 2h-162l-117-2h-37l-99 1-59 1h-112l-27-1-13-2 1 6v11l188 3 18 1 4 1 9-1 7 2h12l26 2 2 1-2 4h-275v-10l1-3z" fill="#6F6F72"/>
<path transform="translate(817,1266)" d="m0 0 3 1v2h6l5 3 3 10 2 4 2 13 6 13 6 15 4 12 1 9 3 6 2 10 5 17 1 13 2 24v14l-2 5-2 10 1 13 4 39v10l-9 2h-39l-7-6v-2l-9-2-5-4-4-10-4-2-2 22-1 1h-43l-7-1-1-1v-7l4-3 7-4 1-1 19-1 7-3 1-8-5 3h-19l3-2h14v-8l3-11 5-4 2-7 1-1 14-2h9l3 2 3 11 3 9 2 9 2 4 27 1-5-48-5-39-5-35-4-37-6-38-2-13z" fill="#E5F8FE"/>
<path transform="translate(1411,1245)" d="m0 0h9l2 2-3 3v19l1 45v133h59l2 3-2 4-2 9h-6v7l6 2v8l-1 1-45 1h-41l-1-23v-212l5-1z" fill="#707073"/>
<path transform="translate(1516,1246)" d="m0 0h33l2 4 1 39-1 191-1 3-29-1-4-1-1-20-1-130v-84z" fill="#707073"/>
<path transform="translate(1749,1246)" d="m0 0h12l3 1 1 3 1 19v214l-31-1-4-1-1-148v-83l8-3z" fill="#707073"/>
<path transform="translate(1087,1254)" d="m0 0 4 2 5 5 1-2 10 26 8 27 11 54 7 36 10 66 2 20v16l-4 2-11 2-31 2-13-4-14-2-5 4h-44l-4-1 1-7 3-3 13-2 12-3 2-4 2-5v-2l-5-1-7 3-1-2 5-5 4-8h2l2-6 6-8 3-6 2-1h8l10 2 3 5 4 10 4 3 2 7v6l5 2 19 1 5 1-6-50-16-101-8-42-3-21-3-12z" fill="#E3F7FC"/>
<path transform="translate(1300,1177)" d="m0 0 81 1h24l43 1 204 1h283l-2 2-41 1-92 1-136 1h-127l-248 1-136-1-111-1-164 1h-543l-114-2-102-1v-1l109-1 156-1 20-1 107 1h261l88 1h260l71-1 18-1z" fill="#AEB0B3"/>
<path transform="translate(472,1246)" d="m0 0 3 1-3 2-1 24v201h-1l-1-7-18-2-1 5-6 10-5 7-8 7-5 5-12 6-17 4h-26l-6-3-5-5v-3h-2l-2-6 12 4h14l14-2 13-4 4-1v-2h-8l-2-1 1-4v-3l14-7 7-7 9-13 3-12 1-9 1-37v-103h1l3 15 9-9 6 1 6 9 3 5 1-9 1-38 1-17z" fill="#E2F5FA"/>
<path transform="translate(1850,1275)" d="m0 0 7 1 14 5 2 3 2 31 1 7h10l9-2 4-4v-27h3l1-4 4 1 6 8 5 10v2l3 1 2 15v20l-2 2h-3v2l-8 2-32 1-8 6-3 10v27l1 9 4 4 8 1v1h-7l1 3v17l-1 19-3 2-17 2h-7l-3-1-1-5-1-39v-29l1-58 1-27 4-11z" fill="#E1F4F9"/>
<path transform="translate(376,1277)" d="m0 0 9 1 11 4 3 7 1 41 1 83v32l-2 4-4 1h-19l-5-2-2-3-1-8-1-20v-126l2-6z" fill="#E4F8FD"/>
<path transform="translate(1008,321)" d="m0 0h10l22 4 12 5 12 7 12 11 8 11 8 14 4 12 1 6v16l-5-5-9-11-2-4-5-2-7-6v-2l-6-3v-2l-5-2-16-8-11-3-7-1h-17l-14 3-15 6-11 7-11 11-7 8-7 11-4 14h-1l-1-14 2-16 5-14 6-12 6-8 10-11 5-4h2v-2l9-5 16-8z" fill="#FAFAFA"/>
<path transform="translate(159,1379)" d="m0 0 3 1 6 14 5 16 8 32 8 28 2 8 5 2h22l6 1 5-1-2 5 11 6 3 3v14l-1 1h-112l-5-1v-19l2-6 2-1h31z" fill="#BFE8FB"/>
<path transform="translate(1603,1572)" d="m0 0h59l121 2h53l54-1h32l8 1 1 1v5l-3 3v5h2v7l-115-1h-27l-213-2-43-1h-398l-72 2h-41l-33-1h-12l-18-1-40-1h-50l-264 1h-126l-107-1h-255v-1l207-2 65-2h29l36 2 9 1 88 1 229-1 93-1 38-1 13-1 27-1h107l49 2 15 1 95 1h313l80 1 23 1 142 1h61l86 2-1-5-1-1v-7h2l-1-4-22-1-82 2h-46l-69-1-98-3z" fill="#A6A7A9"/>
<path transform="translate(1691,1249)" d="m0 0 7 6 5 6 1 12 1 30 3 168 1 24v14l-36 1h-16l-3-1-5-7-1-4 1-5 6-3 15-1 25-1-3-3-29-1-9-3 3-1 7 1h26v-225z" fill="#C0E9FD"/>
<path transform="translate(827,251)" d="m0 0h38l-4 4-9 1-4-1-9 1-26 2h-10l-5 2-11 1-36 9-23 6-19 6-1 3 5 1 4 2-10 4-22 8-18 8-16 8-19 10-21 13-19 13-10 8-15 13-4 4h-2v2l-11 9-9 8-11 7-11 5-10 3 2-5 5-6h2l2-4 26-26 11-9 10-9 9-7 13-10 15-10 7-4 16-10 14-8 19-10 15-7 13-5 28-10 30-8 26-6 28-4z" fill="#46444A"/>
<path transform="translate(1562,1575)" d="m0 0h3v2l4-1v2l2 1-12 4-4 3h-56l-26 1-78 1h-114l-88-1-55-3-7-2v-2l8-1 27-1 65-2h296l5 1h13l14 1v-2z" fill="#D2D3D3"/>
<path transform="translate(857,1436)" d="m0 0 2 3 4 18 3 26 2 25-1 2-7 1h-39l-7-6v-2l-9-2-5-4-4-10-4-2-2 22-1 1h-43l-7-1-1-1v-7l4-3 7-4 1-1 19-1 7-3 1-8-5 3h-19l3-2h14v-8l3-11 5-4 2-7 1-1 14-2h9l3 2 3 11 3 9 2 9 2 4 27 1-3-30v-7l2 1 2 8v15l1 7 5 9 6 2 2-7v-12l-3-27z" fill="#E3F6FB"/>
<path transform="translate(546,855)" d="m0 0h10l11 3 5 3 8 7 6 11 1 5v16l-5 10-9 10-9 4-3 1h-13l-13-3-8-6-5-6-5-13v-13l4-12 9-10 7-5z" fill="#707073"/>
<path transform="translate(1422,1246)" d="m0 0 2 2v5h2l5 13v5l4 1 2-7 2 3 1 4 1 40v88h-1v32l-3 5-5 1 2 6 3 2v-7h1v7h40v1h-58l-1-133-1-45v-19z" fill="#BBC2C7"/>
<path transform="translate(1469,857)" d="m0 0h23l11 5 5 4 5 9 4 10v14l-5 10-6 7-7 4-11 4h-12l-14-4-6-5-8-11-2-8v-12l3-10 7-10 7-5z" fill="#707073"/>
<path transform="translate(721,1250)" d="m0 0h1l1 13 4 6 4 11 3 5 1 4v10l-1 4-8 2-13 1-2 1-1 3-1 17-3 118-3 61-1 1h-24l-30-1-1-1v-9l1-1 7-1 31-2 7-1 3-135 2-52 2-6 4-5-1-9-16-1v-1l21-2 9-2 2-1-1-4h-3l1-9 2-9 2-1z" fill="#B0E3FD"/>
<path transform="translate(294,1249)" d="m0 0 2 3 3 29 1 7v23l-1 7v21l3 19 7 16 2 9 3 86v14l-2 20-2 5h-52l-2-3v-8l4-2 10-2 6-3 6-4 7 1 5 1v-3l-23-1-5-1v-1h28z" fill="#BFE9FD"/>
<path transform="translate(686,1283)" d="m0 0h15l2 1 2 9-5 6-1 5-2 52-3 135-1 1-21 2-17 1-7 1v9l30 1h24l2-40h1v25l-1 16-6 3-25-1-8 1h-11l-10-4-1-2v-8l3-23h1v10h13l20 1 1-58 1-82 1-40 1-17z" fill="#E4F6FB"/>
<path transform="translate(985,1348)" d="m0 0h2l2 5 7 4 3 16 2 23 1 24v42l-3 10-6 10-11 13-7 6-14 6-13 2h-21l-8-3-7-7-5-4-1-4 2-1 10 5h18l9-3 2-6 12-5-5 2-3 1h-8v2l-8 1h-17l-11-4 3-2 9 2h23l13-3 13-8 7-8 8-13 2-6 1-8v-59z" fill="#AADDF9"/>
<path transform="translate(1479,1447)" d="m0 0 4 2 3 8 5 7 1 3 1 13 2 3 2 18v7l-1 1h-98l-6-1-1-2-1-24 86-2v-8l-5-2v-7l4-1 2 1 1-9 2-5z" fill="#AAE0FD"/>
<path transform="translate(1039,1064)" d="m0 0 10 1 36 12 21 8 5 3 2 4-1 5-8 6-6 3-17 9-4 3-15 7h-23l-3-2v-26l2-29z" fill="#FAFAFA"/>
<path transform="translate(1905,1407)" d="m0 0 15 9 4 16 1 6v18l-3 13-6 11-13 13-11 7-12 5-20 3h-21l-2-3v-5l10-2 12-1-1-3-2-1v-5l4-2-25-1v-1l24-1 16-4 10-6h2v-2l7-6 6-9 3-12 1-26z" fill="#93D7FC"/>
<path transform="translate(1011,298)" d="m0 0 15 1 18 4 12 5 6 3 11 7 13 12 7 8 9 15 4 9 2 7v10l-1 5-4-2-2 4-4 2-4-9-5-12-9-14-11-12-14-9-8-4-1-3-6-1v-2l-18-1-2-1v-2l-7 1 2-4 8 1h3 7v-4l-12-4h-20l-14 5-7 3-6 3-4 3h-2v2l-5 3-4 2v2l-6 2-3 4-6 1 1-4 14-14 16-11 9-5 18-5z" fill="#535358"/>
<path transform="translate(612,1254)" d="m0 0h1l1 6v20l25 1 8 3 1 4v194h18l8 1v1h-25l-2-1-1-10v-164l-12-1-3-1h-11l-10 1-4 2-3 12-2 15h-1v-9l3-24-6-4h-4l-4 39-4 15-5 4h-6l-1-2v-12l2-30v-30l1 4 24-6 13-1-1-3z" fill="#DEEEF3"/>
<path transform="translate(995,1056)" d="m0 0h1l1 15v52l-5 3-12-1-26-12-18-10v-2l-4-1-6-8 1-4 10-5 42-16 8-4 3-1 5 1z" fill="#FBFBFB"/>
<path transform="translate(119,1181)" d="m0 0h166v2l46-1h739l730 1v1l-136 1h-127l-248 1-136-1-111-1-164 1h-543l-114-2-102-1z" fill="#D0D1D1"/>
<path transform="translate(251,1379)" d="m0 0h2l1 2 1 10 2 48 1 41 7 1 6 2 18 1 5 1v3l-12-1-9 6-6 2-11 2 2 10 51 1v2l-132 1-50-1-4-2h117v-14l-5-4-9-5 4-9 4-26 7-37 7-26z" fill="#E5F7FC"/>
<path transform="translate(97,1589)" d="m0 0 7 1h59l132 2 18 1 4 1 9-1 7 2h12l26 2 2 1-2 4h-275v-10z" fill="#434047"/>
<path transform="translate(1352,1446)" d="m0 0 2 4 12 6 1 5-5 16-5 9-8 9-14 9-6 2-16 2h-21l-7-3-8-7-3-1v-5l4-3 1-3-4-2 1-2h34l13-3 8-4 12-11 8-13z" fill="#BFE8FC"/>
<path transform="translate(439,1291)" d="m0 0h1l1 11 1 30v88l-1 25v9l1 5 4-7 2-9 5-1 1 9-1 12-8 16-6 8-8 7-5 5-12 6-17 4h-26l-6-3-5-5v-3h-2l-2-6 12 4h14l14-2 13-4 4-1v-2h-8l-2-1 1-4v-3l14-7 7-7 9-13 3-12 1-9 1-37z" fill="#BDE7FC"/>
<path transform="translate(159,1379)" d="m0 0 3 1 6 14 5 16 8 32 8 28 2 8 5 2h22l2 4-4 3h-8l-5 4-12-1-3-3-5-1h-23l-28-1v-2h27z" fill="#F6F7F7"/>
<path transform="translate(1388,1247)" d="m0 0h1v210l-6-1-3 11-3 3-3-1v-2h-7l-2 1 1-11-7-4-5-2-1-1v-30l-1-13h-19l-19 1 1 3 6 2v27l-1 6-15 2h-18v-1l14-1h12v-39l4-1 36-2 2 3v3l7-2h7l8 6 5 12v4l4-1v-10l1-14v-93z" fill="#DFF0F5"/>
<path transform="translate(96,1129)" d="m0 0h162v1l-32 1-9 2-20 1-62 1h-24l-10 1-1 22-1 6 97-1h183l33 1 16 1v2l-33 2-31 1h-78l-17-2-39-1h-129l-2-1v12l-2-2z" fill="#514F55"/>
<path transform="translate(1020,1611)" d="m0 0h21l8 5 2 4h2l2 3v20l-10 8-5 5h-2v2h-9l-2-2-2-15-1-27-3 1-4-1-3 1-2 4h-2l-2 37h-4v-2l-5-1-7-5v-2h-3l-4-5-3-6v-7l4-7 4-4h2v-2l4-2 18-1z" fill="#FBFCFC"/>
<path transform="translate(615,318)" d="m0 0 2 1-3 4 5-3 4 1v-2h8l4 2 1 3-14 8-11 7-19 13-10 8-15 13-4 4h-2v2l-11 9-9 8-11 7-11 5-10 3 2-5 5-6h2l2-4 26-26 11-9 10-9 9-7 13-10 15-10 7-4z" fill="#535359"/>
<path transform="translate(932,1351)" d="m0 0h2v23l4 2 7 3 1 1 1 17v49l-6 2h-12l-3-1v-2h-2l-1-2-1-33v-37l1-20 2-1h6z" fill="#FCFDFD"/>
<path transform="translate(1087,1254)" d="m0 0 4 2 5 5 1-2 10 26 8 27 11 54 7 36 10 66 2 20v16l-4 2-24 2h-14l-6-3-2-3v-6l5-6 5-2h17l4-1 10 2h4v-9l-4-31-6-41-6-34-2-14-5-23-1-9h-2l-3-5h2l-2-11-6-19-3-7-3-1v9l4 35 2 15v7h-1l-8-44-7-42-2-7z" fill="#ABE0FC"/>
<path transform="translate(657,1592)" d="m0 0h89l30 1 5 1 2-1 7 1 16 1 9 3-3 4h-66l-106-1-57-2-8-1-1-1-12-1-2-2 2-1h69z" fill="#423F46"/>
<path transform="translate(1571,1333)" d="m0 0 2 1 2 9 1 28v80l-1 30-3 13-2 15-3 1h-17l-23-1-6-4-2-3-1-9 3-3 7-2h24l2 1h13l1-1 1-28 1-112z" fill="#C0EAFE"/>
<path transform="translate(1153,252)" d="m0 0h45l34 1 29 4 39 9 13 4v2h2v2l-11-1v-2h-7l-7-3-8-1-3-2-1-1h-13l-12-2-60-5-6-1h-25l-10 1-28 1-82 1h-64l-79-1-17-1-4-2 3-1 186-1h84z" fill="#535358"/>
<path transform="translate(632,913)" d="m0 0 10 1 6 2 6 4 7 8 3 10-2 7-6 9h-2l-1 3-8 5h-12l-7-3-7-7v-2h-2l-3-5v-12l6-12 8-7z" fill="#717174"/>
<path transform="translate(512,1382)" d="m0 0 6 1 4 9 6 28 8 33 4 27-1 2-4 1h-19l-2-3-2-37-1-14v-46z" fill="#FAFBFB"/>
<path transform="translate(1390,913)" d="m0 0h11l9 5 6 8 4 11-2 8-1 3h-2v3l-5 5-7 5-10 2-8-3-10-9-4-8v-10l5-10 5-4z" fill="#707073"/>
<path transform="translate(1288,1280)" d="m0 0h19l5 2 1 6 1 20 4 8 1 5h20l15-1 1-14h1l1 14 2 8 5 2 2 10-1 5-1 1-7 1-19 1h-27v33l-1 10h-1l-1-19v-21l1-17-1-49-14-2-6-1-1 3z" fill="#BFE8FC"/>
<path transform="translate(514,1282)" d="m0 0h13l11 2 1 1v52l-2 6-5 3h-14l-5-2-2-2-1-54 2-5z" fill="#E1F3F8"/>
<path transform="translate(1347,1146)" d="m0 0h50l27 1 12 1 19 1 11 2 1 3-2 1h-111l-143-1-20-1 1-2 4-1 59-2z" fill="#D2D3D3"/>
<path transform="translate(702,1343)" d="m0 0v3l1 7 2 12 1 23-1 78-2 40-1 1h-24l-30-1v-9l20-1 16-2 9-1 2-3 1-53 2-48 1-37 1-8z" fill="#92D7FD"/>
<path transform="translate(1626,1393)" d="m0 0 3 1 4 8 6 21 5 21-1 3-4-7-4-1v-2h-2v-2h-2l-1-2-1 54 4 3 5 2 2 7 2 4-1 6-3 1h-42l-1-2v-16l3-2 14-2-1-2-17-2v-2h-4l1-2h17l11 1h8l-1-44z" fill="#AAE0FD"/>
<path transform="translate(593,1299)" d="m0 0 6 1 5 5-8 64-3 7-7 3-8 3-8 5-5 4v18l4 23v7h-1l-4-20-4-34v-18l10-8 2-8h1l1 7 7-2 4-4 3-13 4-39z" fill="#BEE2F3"/>
<path transform="translate(1691,1249)" d="m0 0 7 6 2 4-1 49-1 12-1 37v93l-1 18-2 6-1 8-2 1h-30l-7-2 3-1 7 1h26v-225z" fill="#B7BDC2"/>
<path transform="translate(1630,1432)" d="m0 0 1 3h2v2l6 2 4 6v2h2l3 13 3 15 1 4h2v2l9 2 30 1 2 4-3 1-28 1-9 1-6 2 1 9 4 5v2l4 1v1h-20l1-2h2l-1-9-2-2-1-6-7-3-2-2 1-54z" fill="#E5F7FC"/>
<path transform="translate(857,1436)" d="m0 0 2 3 4 18 3 26 2 25-1 1h-45l-2-4-2-16v-5h-2l1-2 27 1-3-30v-7l2 1 2 8v15l1 7 5 9 6 2 2-7v-12l-3-27z" fill="#AAE0FD"/>
<path transform="translate(1603,1572)" d="m0 0h59l121 2h53l54-1h32l8 1 1 1v5l-3 3v5h2v7l-115-1h-27l-213-2-43-1v-2h77l23 1 142 1h61l86 2-1-5-1-1v-7h2l-1-4-22-1-82 2h-46l-69-1-98-3z" fill="#A6A7A9"/>
<path transform="translate(109,1574)" d="m0 0 4 1 5 1h69l73 1 2 2-8 2-9 1v4l-5 1-34 1-91 1-6-1v-3l7-2 12-1h11l1-3h-24l-5-1-1 3-2-4z" fill="#FDFDFE"/>
<path transform="translate(510,1386)" d="m0 0h1l1 43 2 29 1 27 4 2 4 14v7h-47l-2-3 1-19-1-3h-2l1-2 3 1h14l6-3 4-1 6-4h2l2-4 1-1v-19l-2-42v-15z" fill="#BFE9FD"/>
<path transform="translate(1705,1433)" d="m0 0h1l3 62v14h-51l-1-4 2-12 5-2 32-1 1-3-1-5 2-11 3-1 2-25 1-11z" fill="#AAE0FD"/>
<path transform="translate(781,1449)" d="m0 0h7l-2 2h-5v30h9l1 2-1 24-1 1h-43l-7-1-1-1v-7l4-3 7-4 1-1 19-1 7-3 1-8-5 3h-19l3-2h14v-8l3-11 5-4 2-7z" fill="#ABE0FD"/>
<path transform="translate(1060,1449)" d="m0 0h1l2 17 3 14 1 10v18h-44l-4-1 1-7 3-3 13-2 12-3 2-4 2-5v-2l-5-1-7 3-1-2 5-5 4-8h2l2-6 6-8z" fill="#95D8FD"/>
<path transform="translate(1787,1399)" d="m0 0h1l1 14v61l-1 25-1 7-9 1h-31l-13-2-3-3v-5l10-4 11-2 6-3 6 3 16 1h3l1-48 1-28 1-13z" fill="#AEE2FD"/>
<path transform="translate(1588,1252)" d="m0 0h1l1 120v108h-1l-1-9-1-1-2-27-1-7-1-35v-73l1-17v-28l-1-7 2-16 3-1z" fill="#C0EAFE"/>
<path transform="translate(196,1163)" d="m0 0h183l33 1 16 1v2l-33 2-31 1h-78l-17-2-39-1h-17l-2-2-15-1z" fill="#515157"/>
<path transform="translate(1153,1183)" d="m0 0h647v1l-136 1h-127l-248 1-136-1z" fill="#D2D3D3"/>
<path transform="translate(1934,1593)" d="m0 0 2 1v8h-219l3-2 27-2 40-1 147-2z" fill="#423F46"/>
<path transform="translate(450,1455)" d="m0 0h2v10l-7 14-6 8-8 7-5 5-12 6-17 4h-26l-6-3-5-5v-3h-2l-2-6 9 3 4 2h14l14-2 17-4 7-1 10-7 8-7 6-9z" fill="#93D7FD"/>
<path transform="translate(1360,1470)" d="m0 0h2v7l-5 9-8 9-14 9-6 2-16 2h-21l-7-3-9-8 1-2 3 1h20l21-3 10-3 17-9 5-4 5-6z" fill="#93D7FD"/>
<path transform="translate(998,1466)" d="m0 0h1v6l-6 10-11 13-7 6-14 6-13 2h-21l-8-3-7-7-5-4-1-4 2-1 10 5v2h12l29-3 14-4 4-3h2v-2h2l1-4 5-5 5-6z" fill="#93D7FD"/>
<path transform="translate(1479,1447)" d="m0 0 4 2 3 8 5 7 1 3 1 15-3-1-1-6v-6h-2l-1 8-2 5-10 3-17 1-12 1-9 1h-12l-17 4-5 1-5 4-4 1-1 8h-1l-1-24 86-2v-8l-5-2v-7l4-1 2 1 1-9 2-5z" fill="#BFE9FD"/>
<path transform="translate(1897,1460)" d="m0 0 2 4 2 5 5 1 5-1-1 6-8 11-7 5-11 4-22 4-15 2h-10l2-2 20-2-1-3-2-1v-5l4-2-25-1v-1l24-1 16-4 10-6h2v-2l7-6z" fill="#AADFFC"/>
<path transform="translate(561,357)" d="m0 0 2 1-6 7 6-4h3v-2h2v2l7-2h2l2-1v2l2 1-14 12-4 4h-2v2l-11 9-9 8-11 7-11 5-10 3 2-5 5-6h2l2-4 26-26 11-9z" fill="#717174"/>
<path transform="translate(1304,1593)" d="m0 0h103l10 2 2 3-11 2h-133l-12-1-1-3 4-1z" fill="#515157"/>
<path transform="translate(1020,1611)" d="m0 0h21v1l-15 2-1 3-1-3-3 1-4-1-3 1-2 4h-2l-2 37h-4v-2l-5-1-7-5v-2h-3l-4-5-3-6v-7l4-7 4-4h2v-2l4-2 18-1z" fill="#FAFAFB"/>
<path transform="translate(643,1148)" d="m0 0h33l8 1 2-1 15 1h14l14 1h9l7 2v2l-15 1h-31l-1-1h-15l-13 1h-126l-6-1 1-2 3-1h30l8-1h26l28-1z" fill="#BBC2C8"/>
<path transform="translate(1039,307)" d="m0 0 11 2 8 3v-2l4 1 11 7 13 12 7 8 9 15 4 9 2 7-1 4-4-2v4h-2v-2h-2v-3l-5-2-6-11-7-11-5-5-1-5-4-6-7-6-13-9-8-4-6-2z" fill="#6F6F72"/>
<path transform="translate(665,518)" d="m0 0 4 1-27 8-33 11-25 7-37 10-41 12-36 9-35 7h-9l2-2 20-6 39-12 31-10 15-4 30-10 12-3 25-8 5-1-1 2-17 6-60 20-12 3-1 1-11 2-10 4-10 3-5 2h-3v2l15-4 15-5 10-4h9l34-10 40-10 41-13 15-5z" fill="#BCBEBF"/>
<path transform="translate(376,1277)" d="m0 0 9 1 11 4 3 7 1 41 1 83v32l-2 4-4-1 3-1v-115l-1-42-3-5-4-1h-10l-7 3-1 1v67l-1 87-1 3h-1l-1-8-1-20v-126l2-6z" fill="#B8CAD4"/>
<path transform="translate(1903,1285)" d="m0 0 4 1 6 8 5 10v2l3 1 2 15v20l-5 3-4 1-15 1h-23l-4-2 1-2 24-1 14-3 2-3h2v-6l1-5-1-5h-2l-3-3v-3l-8 1-2 1-1-14v-13h3z" fill="#AADFFC"/>
<path transform="translate(1017,1613)" d="m0 0 7 1 3 38 2 5 9 1-4 8-4-3h-4l-2 7-2-3-7-3-5-4-1-2-3-2h2v-18l2-19h2l2-5z" fill="#ABACAD"/>
<path transform="translate(137,1487)" d="m0 0h17l7 4 1 7 8 2v2h2l4 6-1 1h-47l-5-1v-14l9-4 1-2z" fill="#AAE0FD"/>
<path transform="translate(1e3 246)" d="m0 0h82l83 2 55 3v1h-17l-27-1-176-1h-123l-32 1h-18v-1l43-2z" fill="#BDBEBF"/>
<path transform="translate(1040,253)" d="m0 0h28l6 1 40 1v1l-14 1-1 1-57 1h-64l-79-1-17-1-4-2 3-1z" fill="#505056"/>
<path transform="translate(810,1155)" d="m0 0h32l57 1h131l41-1h273v1l-113 1-154 1h-385l-13-1v-1z" fill="#A6A7A9"/>
<path transform="translate(106,1572)" d="m0 0 13 1 27 1h112l59-1 99-1h37l117 2v1h-223l-86 1-137 1h-11l-1-2-3-1v5l1 1 1-2h24l5 1-1 4h-11l-12 1-7 1v3h6v1h-8l-1-15z" fill="#AFB1B3"/>
<path transform="translate(441,1570)" d="m0 0m-343-15h1l1 22h3l1-8 4 1 3 1 18 1 18-1h30l10 1h57l132-1h65v1l-25 1-99 1-59 1h-112l-27-1-13-2 1 6v11h9v1l-14 1-4-2z" fill="#707073"/>
<path transform="translate(1392,1499)" d="m0 0 25 1 39 1h38l2 1v7h-98l-6-1z" fill="#94D8FD"/>
<path transform="translate(388,1585)" d="m0 0h29l36 2 9 1 80 1v1l-64 1-107-1h-255v-1l207-2z" fill="#ABACAE"/>
<path transform="translate(1087,1254)" d="m0 0 4 2 5 5 1-2 10 26 8 27 11 54 7 36v7h-1l-5-28-3-12-6-29-2-7v-5h-2l-3-5h2l-2-11-6-19-3-7-3-1v9l4 35 2 15v7h-1l-8-44-7-42-2-7z" fill="#B9BFC4"/>
<path transform="translate(984,224)" d="m0 0h85l21 1 16 1h2v4h-81l-92-1 3-3 11-1h17z" fill="#515157"/>
<path transform="translate(596,1306)" d="m0 0h2l3 7v15l-5 41-3 7-7 3-8 3-4 2h-3l1-5 5-5 6-5 2-5 2-11 3-14 2-24z" fill="#ABE0FD"/>
<path transform="translate(563,1490)" d="m0 0h14l10 1 7-1 1 1v8l-2 7-10 1h-34l-4-8 1-3 3-2z" fill="#91D7FD"/>
<path transform="translate(1638,1162)" d="m0 0h24l107 1 10 1-1 3-16 1h-13l-6 1h-71l-4-1-4 1v-2l-10 1-17-3z" fill="#515157"/>
<path transform="translate(1570,1490)" d="m0 0h1v13l-1 6-3 1h-17l-23-1-6-4v-5l17-3 8-5 8-1h9z" fill="#ABE0FD"/>
<path transform="translate(1069,1356)" d="m0 0h3l4 15 3 22 1 19-3 2h-10l-4-2v-12l3-33z" fill="#DCEFF5"/>
<path transform="translate(1046,643)" d="m0 0h1l1 13v32l-2 86-2 77-2 80-1 27 7-2h6v-2l8-1 9-3 7-1-3 2-6 2-2 4-8 4-5 3-1 2h-3v-2l-9-1-1-4v-30l2-93 2-110 2-59v-10l-1-11z" fill="#BFC0C2"/>
<path transform="translate(1905,1313)" d="m0 0 5 1v3l3 1v2h2l2 5-2 11-5 4-13 3h-17v-1h8l-1-6-2-4 2-4h2l1-5-4-1 9-2 7-6z" fill="#BFE9FC"/>
<path transform="translate(916,1572)" d="m0 0h140l50 1h72l272 1v1l-327 1-36-1-171-2z" fill="#A6A7A9"/>
<path transform="translate(710,277)" d="m0 0h6l2 2-9 3-1 3 5 1 4 2-10 4-22 8-18 8-26 13-1-3 5-4 4-4 6-2v-2l4 1 1-2 5-2-2-1 3-1 1-4 5-4 2-3 12-2 9-2 1-2 10-4 2-2z" fill="#55555A"/>
<path transform="translate(791,1352)" d="m0 0 3 3 2 9 3 18 2 30-2 3h-12l-2-2 1-14 4-45z" fill="#DDEEF3"/>
<path transform="translate(220,1489)" d="m0 0h10l11 5v14l-1 1h-36l-1-2 4-10 4-4 7-3z" fill="#A9DFFD"/>
<path transform="translate(857,1436)" d="m0 0 2 3 4 18v7h-1l-1-6 1 18 1 5-2 10-5 2-1 5-3 2h-3l-4-12h-2l-2 3-18 4-2-1-1 5h-1l-1-15h-2l1-2 27 1-3-30v-7l2 1 2 8v15l1 7 5 9 6 2 2-7v-12l-3-27z" fill="#BFE8FC"/>
<path transform="translate(1626,1393)" d="m0 0 3 1 4 8 6 21 5 21-1 3-4-7-4-1v-2h-2v-2h-2l-1-2-1 49-3 1h-32l-4-1 1-2h17l11 1h8l-1-44z" fill="#D0D1D2"/>
<path transform="translate(657,1592)" d="m0 0h89l30 1 5 1 2-1 7 1 16 1 9 3-3 4h-56l-1-2 15-1 1-2h2l1 1v-2h-12l-34-1h-12l-7-1-2 1h-76v-2z" fill="#505056"/>
<path transform="translate(766,1494)" d="m0 0h14l1 5 4-1 3-4 1 2v12h-43l-7-1-1-1v-7l17-3z" fill="#93D7FD"/>
<path transform="translate(1518,513)" d="m0 0 5 1 18 8 24 9 36 12 29 9 31 9 42 10 28 5 56 8h19l-2 3h-15l-41-5-36-6-31-7-45-12-36-11-44-15-28-12-10-5z" fill="#BFC0C1"/>
<path transform="translate(173,1466)" d="m0 0 5 1 2 3 1 8 6 3 3-1 1-2 5 2h22l2 4-4 3h-8l-5 4-12-1-3-3-5-1h-23l-28-1v-2h27l1-4v4l10-4h2l-2-4 1-7z" fill="#E3F6FB"/>
<path transform="translate(294,1249)" d="m0 0 2 3 3 29 1 7v23l-1 5-2-3-1 160-1 9h-1z" fill="#B4B9BD"/>
<path transform="translate(684,1376)" d="m0 0h1l1 14 1 5 2 32v37l-2 5-4 1-2-3v-41l1-36 1-13z" fill="#F5F7F8"/>
<path transform="translate(721,1250)" d="m0 0h1l1 13 4 6 4 11 3 5 1 4v10h-1v-9l-7 2v2l-4 4h-5l-3-2v-2l-8 1 4-2v-8l1-3-4-1v-1l9-2 2-1-1-4h-3l1-9 2-9 2-1z" fill="#ABDEF9"/>
<path transform="translate(935,1374)" d="m0 0 4 3 6 2 1 1 1 17v49l-6 2h-12l-3-2h11l8-1v-17l-1-14h-2l-3-5-3 1-1 5-2-4-2-10v-16l6-2-1-6z" fill="#DBE9EE"/>
<path transform="translate(1894,1555)" d="m0 0h43v9l-6 1v-3l-4-1v-2l-23 1-16-1h-86l-22-1h-10l-2-2z" fill="#312D32"/>
<path transform="translate(1700,1491)" d="m0 0 4 2 3 5 1 10-40 1-5-1 1-5 5-5 10-3 10-2 4 4 3 1 2-5z" fill="#91D7FE"/>
<path transform="translate(897,1475)" d="m0 0 10 6v2l11 3h25v-2l11-2 3-2 3 1-5 3-8 3-2 6-9 3h-18l-10-5-1 4 3 1v2l4 2 6 7-5-1-12-9-2-4v-9l-4-5z" fill="#E3F6FC"/>
<path transform="translate(1537,1184)" d="m0 0h243v1l-84 2h-97l-77-1v-1z" fill="#EDFAFE"/>
<path transform="translate(1285,1329)" d="m0 0 2 3 2 13 1 23v47l-3 14-2 1-1-16v-82z" fill="#FBFDFE"/>
<path transform="translate(894,1583)" d="m0 0h30l-3 3-14 1-35 1-99 1h-133v-1l187-2z" fill="#B6B8BB"/>
<path transform="translate(775,1479)" d="m0 0h2v8l-5 3-3 1-19 1-5 4-6 3v7l7 1h43l1-10h1v11l-1 1h-49l-5-3-1-5 3-7v-5l-1-5 2-3h33z" fill="#E4F7FC"/>
<path transform="translate(1588,1252)" d="m0 0h1l1 120v108h-1l-1-9-1-52v-160z" fill="#B4B9BD"/>
<path transform="translate(1099,1285)" d="m0 0 4 1 5 12 6 22-1 4-3 1-1 11-2 7v21h-1l-2-20-3-21-3-29v-7z" fill="#BFE8FC"/>
<path transform="translate(1409,519)" d="m0 0 5 1 30 11 36 12 33 10 22 7 42 14 22 6 7 3-3 1-29-5-20-5v-1l10 1 1-2-10-2-6-3-28-8-25-8-20-6-35-12-28-11z" fill="#BFC2C5"/>
<path transform="translate(97,445)" d="m0 0 5 2 3 4 1 3 8 7 12 13 11 11 7 8 39 39 5 6 8 7 12 11v2l-4-1-11-10-8-7-32-32-7-8-22-22-7-8-10-11-9-11z" fill="#48454C"/>
<path transform="translate(987,1352)" d="m0 0 9 5 3 16 2 23 1 24v42h-1l-1-32-3-12-1-16-1-6-4-18-1-1-3-17z" fill="#C0EAFE"/>
<path transform="translate(731,1290)" d="m0 0h3v13l-8 2-13 1-2 1-1 3h-2l-1 4-3 4-1 7-2 7h-1v-32l5-4 5-2h5v2l8 2 2-4h2v-2z" fill="#93D6FB"/>
<path transform="translate(1934,1593)" d="m0 0 2 1v8l-100-1-21-1v-1l16-1 76-2 27-1z" fill="#302C31"/>
<path transform="translate(665,518)" d="m0 0 4 1-27 8-33 11-25 7-37 10-41 12-36 9-35 7h-9l2-2 11-2 9-1 7-2 19-3 4-2 12-3 15-5 10-4h9l34-10 40-10 41-13 15-5z" fill="#C2C3C4"/>
<path transform="translate(1040,253)" d="m0 0h28l6 1 40 1v1l-20 1h-148l-7-1v-1l29-1z" fill="#424046"/>
<path transform="translate(827,251)" d="m0 0h38l-4 4-9 1-4-1-9 1-26 2h-10l-5 2-11 1-12 3h-5l3-3 9-2 2-1v-3l27-3z" fill="#55555A"/>
<path transform="translate(1729,1256)" d="m0 0h1l1 77v148h-1l-1-5v-39l-1-27v-129z" fill="#BBC0C4"/>
<path transform="translate(1767,1566)" d="m0 0 16 1h14l37 1h48l23-1 14-1h8v2l4 1-2 2h-6l-2-2h-9l-12 1h-72l-207-1v-1l51-1h90z" fill="#515157"/>
<path transform="translate(1275,1482)" d="m0 0h45v2l-11 4 4 4-4 2-8 1h-20l-6-1-1 3v-5l4-3 1-3-4-2z" fill="#DEEEF2"/>
<path transform="translate(1473,1586)" d="m0 0 12 1v2h-269v-2h196z" fill="#B5B7B9"/>
<path transform="translate(1780,1494)" d="m0 0 5 1v10l-12 1h-22l-12-1-6-3v-3l22-1 5-2 14-1z" fill="#91D7FE"/>
<path transform="translate(1357,1328)" d="m0 0 6 1 2 6 1 9-2 2-7 1h-36l1-4 3-1 17-2 9-4 4-7z" fill="#ABE0FD"/>
<path transform="translate(1017,1613)" d="m0 0 7 1v27l-3 4-3-3h-2l-3 6-4 2 1-23 2-10 2-3z" fill="#707073"/>
<path transform="translate(1142,1494)" d="m0 0 2 3v7l-3 2-24 2h-14l-6-3v-6l4-1 11 2 8-4 6 1 1 3h9v-2h5z" fill="#94D8FD"/>
<path transform="translate(1903,1285)" d="m0 0 4 1 6 8 5 10v2l3 1 1 8-2 2-4-6-5-3h-6l-2 6-3 2-1-14v-13h3z" fill="#BAC1C7"/>
<path transform="translate(991,1289)" d="m0 0 2 3 3 13 1 5-2 8h-2l-4 8h-20l-8-1v-1h14l6 1 1-19 1-2h3l3-9z" fill="#BAC0C5"/>
<path transform="translate(1787,1399)" d="m0 0h1l1 14v61l-1 25h-1l-1-15-1 7-2 1 1-48 1-28 1-13z" fill="#BEE9FD"/>
<path transform="translate(370,1284)" d="m0 0v3 110l1 47-2 1-1-8-1-20v-126l2-6z" fill="#B3B7BC"/>
<path transform="translate(814,179)" d="m0 0h49v1l-25 1-3 1-4-1v2l-3-1h-10l-3 2h-9l-4-1-10 1-1 2-5-1-4 2-5-1-5 1-7-1-2 1-9 1-3 2-2-1-15 2-7 2-11 1-1 2h-6l1-2 25-6 30-5 34-3z" fill="#515056"/>
<path transform="translate(562,1593)" d="m0 0h61v1l-13 1-1 1 9 2 80 2v1h-58l-57-2-8-1-1-1-12-1-2-2z" fill="#515157"/>
<path transform="translate(300,1494)" d="m0 0h5l-1 8 5 2-1 3h-37l-7-4 1-4h18l7-3z" fill="#91D7FE"/>
<path transform="translate(817,1266)" d="m0 0 2 4 1 6-1 2h2l7 42 7 63 3 21 1 13v10h2v17h-1l-6-48-5-35-4-37-6-38-2-13z" fill="#B5BDC3"/>
<path transform="translate(388,1585)" d="m0 0h29l36 2 9 1 80 1v1l-64 1-22-1-78-1-21-2v-1z" fill="#B6B9BC"/>
<path transform="translate(128,1582)" d="m0 0h11l23 1h16l3 1v2l4 1-6 1-64 1-6-1v-3l7-2z" fill="#E6F9FE"/>
<path transform="translate(1598,1482)" d="m0 0h30l2 6 8 4 2 7 2 4-1 6-3 1h-21v-1h20l-1-15-9-2-8-1-3 2h-10l-8 3-1 2-1 10h-1v-16l3-2 14-2-1-2-17-2z" fill="#C0EAFE"/>
<path transform="translate(1394,412)" d="m0 0 11 1 42 9 36 10 31 9 35 8 45 9v1h-7l-55-11-25-6-26-7-26-8-16-4-26-6-19-4z" fill="#BDBEBF"/>
<path transform="translate(1334,290)" d="m0 0 10 3 5 1 10 4 10 3 7 4 2 1-1 3 2 1 1 3v-3l4 1 4 2 1 4 3 1-1 1 2 1v2l-5-1-20-11-15-7-12-5v-3l-7-1-1-3z" fill="#54545A"/>
<path transform="translate(1350,1404)" d="m0 0 4 1-2 2h-19l-19 1 1 3 6 2v27l-1 6-15 2h-18v-1l14-1h12v-39l4-1z" fill="#A6A7A9"/>
<path transform="translate(189,1595)" d="m0 0h32l44 1 12 1 1 2-16 1h-37l-51-1-5-1 1-2z" fill="#302C31"/>
<path transform="translate(310,1490)" d="m0 0h2v13l-2 5h-37v-1l12-1h23v-2l-4-2v-6l1-2-15 3-7 3h-18v3l2 2h-7l-2-5 2-3 9-2 17-1 11-1z" fill="#AAE0FD"/>
<path transform="translate(698,1367)" d="m0 0h1v28l-2 42-1 53-3 4-21 2-8 1h-16v8h-1v-9l1-1 7-1 31-2 7-1 1-48 1-14 2-61z" fill="#AAE0FD"/>
<path transform="translate(967,1473)" d="m0 0 3 1-11 11-1 7-9 4-19 2-12-1v-1l18-1 9-3 2-6 12-5-5 2-3 1h-8v2l-8 1h-17l-11-4 3-2 9 2h23l13-3z" fill="#BEE9FD"/>
<path transform="translate(904,1573)" d="m0 0h39v2l-10 1h-9l-10 1h-69l-32-1v-1l22-1z" fill="#B7BABE"/>
<path transform="translate(942,377)" d="m0 0 7 2h4v7l2 1-7 7-6 10-4 14h-1l-1-14 2-16z" fill="#E4F4F9"/>
<path transform="translate(1076,347)" d="m0 0 4 1 5 6 5 5 4 6v3l5 2v3h2v2h2v-4h4l1 7-1 6-4-2-2 4-4 2-4-9-5-12-9-14-3-4z" fill="#515157"/>
<path transform="translate(439,1291)" d="m0 0h1l1 11 1 30v88l-1 17-2 5-2 9-1 2-2-1 3-12 1-9 1-37z" fill="#B7D2E0"/>
<path transform="translate(1552,1574)" d="m0 0h34l4 1v3l-11 3h-3l-2 4-10 2-9-1 4-4 10-4v-2l-4 1v-2l-6 1v2h-27l-5-1v-1z" fill="#BBC2C8"/>
<path transform="translate(563,1490)" d="m0 0h14l10 1 7-1 1 1v8h-1v-6l-18 4-15 1-7 1-3 1-1 5 33 1v1h-34l-4-8 1-3 3-2z" fill="#ABE0FD"/>
<path transform="translate(554,545)" d="m0 0h5l-4 2h-2v2l8-1-3 2-34 10h-9l-10 4-21 7-9 1v-2l13-5 13-4 6-2 7-1 9-3z" fill="#FDFDFE"/>
<path transform="translate(106,1572)" d="m0 0 13 1 27 1 14 1v1l-14 1h-33l-1-2-3-1v5l1 1 1-2h24l5 1-1 4h-11l-12 1-7 1v3h6v1h-8l-1-15z" fill="#CFD0D1"/>
<path transform="translate(510,1386)" d="m0 0h1l1 43 2 29 1 24-2 1-22 1h-13v-1l12-1 6-3 4-1 6-4h2l2-4 1-1v-19l-2-42v-15z" fill="#B1B3B6"/>
<path transform="translate(1104,1279)" d="m0 0 2 3 9 30 11 54 7 36v7h-1l-5-28-3-12-6-29-2-7v-5h-2l-3-5h2l-2-11-6-19-3-7-2-1 1-3h3z" fill="#D1D2D2"/>
<path transform="translate(500,1567)" d="m0 0m-61 1h61v1l-38 1-21 1-65 1h-105v-1l96-1z" fill="#48464D"/>
<path transform="translate(1124,1369)" d="m0 0 2 3 6 32v5h2l8 52 2 16v9h-1l-1-8-2 2-4-31-6-41-6-34z" fill="#C3E5F5"/>
<path transform="translate(821,1283)" d="m0 0h2l6 34 4 31 2 18 3 8 1 6 1 29v18h-1l-3-30-5-40-5-45-5-26z" fill="#C0E8FB"/>
<path transform="translate(1042,871)" d="m0 0h1v27l-2 60 7-2h6v-2l8-1 9-3 7-1-3 2-6 2-2 4-8 4-5 3-1 2h-3v-2l-9-1-1-4v-30l1-39z" fill="#C1C2C3"/>
<path transform="translate(1862,1596)" d="m0 0h45v1l-78 2 7 1 83 1v1h-116v-1l11-1v-2h-27v-1z" fill="#47454C"/>
<path transform="translate(1887,1471)" d="m0 0h2l-1 3-8 6-10 6-3 1 1 3 4 2-1 3-5 2h-4v2l-15 2h-10l2-2 20-2-1-3-2-1v-5l4-2-25-1v-1l24-1 16-4 10-6h2z" fill="#BBE0F2"/>
<path transform="translate(119,1569)" d="m0 0h68l9 1h13l29 1 6 1v1h-60l-11-1h-28l-17 1-17-1 2-2z" fill="#515157"/>
<path transform="translate(1361,1462)" d="m0 0h4l-1 9-2 3v-4l-6 4-5 6-8 5-8 4-2-1 5-8 3-4h2l2-4 9-7z" fill="#AAE0FD"/>
<path transform="translate(657,1592)" d="m0 0h89l20 1 2 2-6 1-34-1h-12l-7-1-2 1h-76v-2z" fill="#515157"/>
<path transform="translate(519,1500)" d="m0 0h2l1 2v6h-46l-1-5 1-1h41z" fill="#91D7FD"/>
<path transform="translate(515,1488)" d="m0 0h3v2h2l3 11v7h-1l-1-8-4 3h-41l-2 2v-5l7-1 15-1 12-2 5-5z" fill="#ABE0FD"/>
<path transform="translate(119,1164)" d="m0 0h121v1h-29v2h-55l-37-1z" fill="#444249"/>
<path transform="translate(761,679)" d="m0 0h2l-1 6-11 18-7 10-3 3-1-1-7 2-5 4 2-4 12-14 12-16z" fill="#DFECF0"/>
<path transform="translate(251,1379)" d="m0 0h2l1 2 1 10 2 48 1 41 7 1v1h-8l-1-1-3-83-1-3-3 1-5 16-4 16-1-4 4-18 7-26z" fill="#BCBFC2"/>
<path transform="translate(978,691)" d="m0 0h1l-1 12-1 9-1 124-1 23h-1v-121l1-39z" fill="#BEBFC0"/>
<path transform="translate(1082,1577)" d="m0 0 41 1h21l3 2h-16v2l7 1v1h-17l-25-2-15-1-3-2z" fill="#BBC2C8"/>
<path transform="translate(245,1429)" d="m0 0 3 3-7 26-2 9-2 2h-3v-13l3-15 5-10z" fill="#FDFDFE"/>
<path transform="translate(1067,701)" d="m0 0h2l3 7v2h-2l-1 3-1 75-1 66-1 4-1-2v-41l1-40v-73z" fill="#C2C3C4"/>
<path transform="translate(1121,1566)" d="m0 0h12l19 1 65 1-1 2h-49l-95-1v-1l48-1z" fill="#47464C"/>
<path transform="translate(1845,1244)" d="m0 0h18l12 3 8 4 12 11 3 3-1 2-8-8-6-2-1-4-4 1-9-4h-4l-1-1-2 2-6-1-3-2v2h-8l-3-4z" fill="#515156"/>
<path transform="translate(1394,322)" d="m0 0 5 2 12 7 11 6 14 9 20 14 15 14 4 4v2l-4-2-12-11-9-7-12-9-17-11-10-6-17-10z" fill="#48454B"/>
<path transform="translate(1479,1447)" d="m0 0 4 2-1 4h-2l-2 28-1 1-14 1h-73v-1l86-2v-8l-5-2v-7l4-1 2 1 1-9 2-5z" fill="#B1B5B9"/>
<path transform="translate(771,596)" d="m0 0 4 2 3 6-7 9-7 2-5-3v-2l-2-1 2-5 11-7z" fill="#F2F3F4"/>
<path transform="translate(334,1595)" d="m0 0h11l26 2 2 1-2 4h-31l-18-1v-1l11-1 3-1z" fill="#515157"/>
<path transform="translate(542,1744)" d="m0 0 4 1 15 10 17 10 28 16 6 3 9 4v2l-8-2-27-14-20-12-19-13-5-3z" fill="#514F55"/>
<path transform="translate(698,1149)" d="m0 0h17l14 1h9l7 2v2l-15 1h-31l1-3-3-2z" fill="#BBC2C8"/>
<path transform="translate(944,1574)" d="m0 0h37l16 1v2l6 1v2l-6 1-17 1h-16v-1h13v-2l-4-2-4-1h-23z" fill="#BBC2C8"/>
<path transform="translate(781,1449)" d="m0 0h7l-2 2h-5l-1 15-2 11-6 5h-19l3-2h14v-8l3-11 5-4 2-7z" fill="#A9AAAD"/>
<path transform="translate(588,1017)" d="m0 0 18 2 24 9-4 1h-18l2 4-4-2-11-8-7-5z" fill="#C8CACB"/>
<path transform="translate(1494,642)" d="m0 0 10 3 37 15 30 12 17 8v1h-7l-16-4v-1l11 1-17-7-17-6-32-14-15-6z" fill="#C6C8CA"/>
<path transform="translate(1626,1393)" d="m0 0 3 1 4 8 6 21 1 7-2-2-7-24-2-5-2-1 1 37v47l-2 1h-32l-4-1 1-2h17l11 1h8l-1-44z" fill="#B3B8BD"/>
<path transform="translate(253,605)" d="m0 0 6 3v2l4 2 9 8 8 7 13 11 11 9 10 8 1 2-5-1v-2l-4-2-11-8-14-12-11-9-7-7-8-7z" fill="#4C4A51"/>
<path transform="translate(1356,1312)" d="m0 0h1l2 6 10 5 2 2-2 15-3 6-1 1-7 1h-20v-1l19-1 7-1 1-5-2-10-4-2-3-8z" fill="#E6F9FE"/>
<path transform="translate(572,628)" d="m0 0 3 1-24 11-22 9-11 4-15 6-27 10-7 1 2-2 19-7 25-10 29-11 23-10z" fill="#C1C2C3"/>
<path transform="translate(840,1495)" d="m0 0 5 1v8l-2 4-7 1h-14l-1-1v-8l5 2 8-1 5-5z" fill="#91D7FD"/>
<path transform="translate(800,253)" d="m0 0h21l-3 2-5 3h-10l-5 2-11 1-12 3h-5l3-3 9-2 2-1v-3z" fill="#525258"/>
<path transform="translate(161,1577)" d="m0 0h50l6 1-1 2-7 1h-10v2h-9l-9-1-10-3h-7z" fill="#E6F9FE"/>
<path transform="translate(642,1151)" d="m0 0h58v3h-17l-13 1h-26l-9-1v-2z" fill="#D2D3D3"/>
<path transform="translate(1423,1248)" d="m0 0 9 3 6 4 1 3v10l-2-1-2 5-4-1-2-7-3-8v-3h-2z" fill="#C1E7FA"/>
<path transform="translate(1552,567)" d="m0 0 9 2 24 7 20 6 1 2-15-2-25-5-12-3v-1l10 1 1-2-10-2z" fill="#C0C2C3"/>
<path transform="translate(500,518)" d="m0 0 3 1-17 8-15 6-26 9-10 4-32 9-3-1 13-5 25-7 15-6 24-8z" fill="#BDBEBF"/>
<path transform="translate(704,1466)" d="m0 0h1v25l-1 16-6 3-25-1-8 1h-11l-5-3v-1h53z" fill="#DDF5FE"/>
<path transform="translate(1518,513)" d="m0 0 5 1 18 8 24 9 48 16v2l2 1-9-2-50-17-28-12-10-5z" fill="#BCBEBF"/>
<path transform="translate(1932,446)" d="m0 0h4l-2 4-11 13-5 4 2-12-8-1h-6v-2l23-5z" fill="#48454C"/>
<path transform="translate(593,1299)" d="m0 0 6 1 5 5-2 15h-1l-1-7-2-3v-4h-2l-1 6-2 3-2 24-1 5h-2l1-16 3-28z" fill="#C0EAFE"/>
<path transform="translate(1046,643)" d="m0 0h1l1 13v32l-1 39-2 30h-1v-31l2-59v-10l-1-11z" fill="#B9BBBC"/>
<path transform="translate(1442,1018)" d="m0 0h3l-1 3-7 4-1-2-6 3-31 7-5 1 4-3 13-6 25-6z" fill="#B4B6B8"/>
<path transform="translate(252,1592)" d="m0 0h43l18 1 4 1 9-1 7 2-3 2-37-1-13-1-18-1-10-1z" fill="#515157"/>
<path transform="translate(1083,1454)" d="m0 0 2 4 4 7 3 2 2 7v6l5 2 19 1 5 1v-6h1v7l-27-1-5-1v-2l-4-1-2-3-3-17z" fill="#ADB4BA"/>
<path transform="translate(1461,1574)" d="m0 0h64v3h-61l-4-2z" fill="#B6B9BC"/>
<path transform="translate(1397,1146)" d="m0 0h33l24 1 14 2 10 3 2 3h-15l2-1-1-2-11-2-22-1-12-1-24-1z" fill="#BBC2C8"/>
<path transform="translate(723,1265)" d="m0 0h2l6 15 3 5-1 2-3 1h-7l-4-7 4-3 4-1v-2l-6-2v-5z" fill="#C0EAFE"/>
<path transform="translate(170,522)" d="m0 0 4 1 9 9 5 6 8 7 12 11v2l-4-1-11-10-8-7-14-14z" fill="#4D4B51"/>
<path transform="translate(694,1443)" d="m0 0h1v49l-2 2-21 2-8 1h-16v8h-1v-9l1-1 7-1 31-2 7-1z" fill="#BDE8FD"/>
<path transform="translate(904,1573)" d="m0 0h39v2l-10 1h-9l-10 1h-14l-8-1h-7v-2z" fill="#B6B9BC"/>
<path transform="translate(780,1462)" d="m0 0h1v19h9v1l-8 1-1 6-4 3-19 1-9 2-4 1 5-5 19-1 7-3v-9l2-4z" fill="#C0EAFE"/>
<path transform="translate(1724,576)" d="m0 0 14 1 49 7h19l-2 3h-15l-41-5-6-1v-2l-12-1-6-1z" fill="#C3C4C5"/>
<path transform="translate(294,1249)" d="m0 0 2 3 3 29 1 7v23l-1 5-2-3-1-13-1-32-1-10z" fill="#D0D3D4"/>
<path transform="translate(97,1136)" d="m0 0 3 2v20l-1 6h20v2l-6 1h-12l-2-1v12l-2-2z" fill="#4C4B52"/>
<path transform="translate(1537,662)" d="m0 0 5 1 25 9 10 5-4 1-20-4-10-3v-1h6l-4-2v-2l-7-2z" fill="#E5F0F3"/>
<path transform="translate(977,1781)" d="m0 0 2 3 4 1 81 1 1-2v3l-23 1h-47l-20-1v-2h2z" fill="#BEBFC0"/>
<path transform="translate(98,1555)" d="m0 0h1l1 22h3l2-3h2v15h9v1l-14 1-4-2z" fill="#717174"/>
<path transform="translate(996,1310)" d="m0 0 2 4 1 8v13l-10-5-7-4 4-1 3 1 1-5 3-3h2z" fill="#ACE0FD"/>
<path transform="translate(949,382)" d="m0 0h2l-1 4-2 4-2 1-1 4 2 1-5 8-4 14h-1l-1-14 2-16 1 4 5-2z" fill="#C7C8C8"/>
<path transform="translate(128,1582)" d="m0 0h11v1h-5l1 2 5 1-1 2-12 1h-12l-6-1v-3l7-2z" fill="#FAFDFE"/>
<path transform="translate(1058,1454)" d="m0 0 1 2-1 2v7l-4 1 2 5-2 5-12 6h-3l5-6 4-8h2l2-6z" fill="#B9BDC1"/>
<path transform="translate(765,183)" d="m0 0 11 1v3l-11-1-2 1-9 1-3 2-2-1-15 2-7 2-11 1-1 2h-6l1-2 25-6z" fill="#58575C"/>
<path transform="translate(1141,1483)" d="m0 0h1v8l-1 2-11-1-6-2-7 2-2 1h-14-3l4-4 3-1h17l4-1 10 2h4z" fill="#C0EAFE"/>
<path transform="translate(1104,1279)" d="m0 0 2 3 9 30 1 5v10l-2-3-8-29-4-9-2-1 1-3h3z" fill="#C2C7CB"/>
<path transform="translate(1074,949)" d="m0 0 4 1-9 3-2 4-8 4-5 3-1 2h-3v-2h-2l-1-3 3-2 1-3h3v-2l8-1 9-3z" fill="#ACADAF"/>
<path transform="translate(1742,1598)" d="m0 0h31v1l-10 1-1 2h-45l3-2z" fill="#515157"/>
<path transform="translate(1461,1573)" d="m0 0h97l-1 2-16 1h-15l-1-1-64-1z" fill="#ADAEB0"/>
<path transform="translate(1087,980)" d="m0 0 5 1 17 8 29 12 16 5 14 4-2 2h-6l-9-4-17-6-35-15-12-6z" fill="#BDBEC0"/>
<path transform="translate(370,1339)" d="m0 0h1l1 16-1 69h-1l-1-27v-54z" fill="#CFD6D9"/>
<path transform="translate(1280,262)" d="m0 0 11 2 19 5 3 1v2h2v2l-11-1v-2h-7l-7-3-8-1-3-2h2z" fill="#59595E"/>
<path transform="translate(965,1474)" d="m0 0 2 1-7 5-9 4h-8v2l-8 1h-17l-11-4 3-2 9 2h23l13-3z" fill="#B9BCBF"/>
<path transform="translate(333,1445)" d="m0 0 3 2 4 13 5 8v5h-5l-3-4-4-13-1-8z" fill="#F3F5F5"/>
<path transform="translate(563,1490)" d="m0 0h14l10 1 7-1 1 1v8h-1v-7l-5 1-28 2-14 3-1 4-1-4 4-4z" fill="#C0EAFE"/>
<path transform="translate(1757,1488)" d="m0 0 7 3 9 1v1l-17 3-10 1h-14v-1l9-3 11-2z" fill="#C0EAFE"/>
<path transform="translate(702,1281)" d="m0 0h7l3 1v8l-1 3-4 1v2l-6 4-2 1 2-5 3-3-1-9-16-1v-1z" fill="#BDE5F8"/>
<path transform="translate(106,1572)" d="m0 0 13 1 27 1 14 1v1l-14 1h-33l-1-2-3-1-1 5-2 2z" fill="#C5C6C7"/>
<path transform="translate(1313,1323)" d="m0 0h24l-3 2-10 2-6 5-3 5h-3v-13z" fill="#E6F9FE"/>
<path transform="translate(482,566)" d="m0 0 3 1-7 3h-3v2l2 1-14 3-13 2-5 2h-6v-2l15-5 12-2z" fill="#CBCCCC"/>
<path transform="translate(931,433)" d="m0 0 2 1 4 7 1 3h2l4 6 11 12v2l4 2 8 7 4 4-4-1-16-13-11-13-9-13z" fill="#464349"/>
<path transform="translate(1673,566)" d="m0 0h9l27 6 15 3v2l12 1 6 1v1l-14-1-29-6-26-6z" fill="#B9BABB"/>
<path transform="translate(1350,1404)" d="m0 0 4 1-2 2h-19l-19 1 1 24v14l-1 1-9 1h-18v-1l14-1h12v-39l4-1z" fill="#C4C7CA"/>
<path transform="translate(1311,1282)" d="m0 0h1l1 6 1 20 4 8 1 5 11 1v1h-18l-1-22z" fill="#B7BDC2"/>
<path transform="translate(1473,1586)" d="m0 0 12 1v2h-46l-27-1v-1z" fill="#B6B9BC"/>
<path transform="translate(840,691)" d="m0 0h2l-2 13-3 8-7-2-1-3 7-11z" fill="#DAE7EA"/>
<path transform="translate(1409,519)" d="m0 0 5 1 30 11 28 10 1 2-9-2-31-11-22-9z" fill="#C1C4C7"/>
<path transform="translate(1641,1446)" d="m0 0 4 1 1 3 2 21-4-1-2-5-2-17z" fill="#F9F9FA"/>
<path transform="translate(995,1056)" d="m0 0h1l1 15v52l-5 3-4-1 7-3v-55l-8-1v-3l3-1 5 1z" fill="#C3C4C5"/>
<path transform="translate(1056,1465)" d="m0 0 3 3v6l1 5-2 2h-3l-1 5-5 6v-3l3-5v-3l-4-2 3-3h3l1-6-1-4z" fill="#B6E4FD"/>
<path transform="translate(721,1250)" d="m0 0h1l1 13 1 2-2 3-1 9-4-4h-2l1-9 2-9 2-1z" fill="#B8BEC3"/>
<path transform="translate(554,545)" d="m0 0h5l-4 2h-2v2l8-1-3 2-21 6-4-1 2-4z" fill="#ECFAFE"/>
<path transform="translate(1845,1244)" d="m0 0h18v2l2 2-3 3-6-1-3-2v2h-8l-3-4z" fill="#55555A"/>
<path transform="translate(586,337)" d="m0 0h3l-1 4-5 5-4 1-1 3-5 2v2l-4 1v2l-3-1 5-7 14-11z" fill="#4B494F"/>
<path transform="translate(449,1660)" d="m0 0 4 2 16 17 7 8 5 7-4-2-12-12-7-8-9-10z" fill="#58585D"/>
<path transform="translate(923,1328)" d="m0 0 3 1 4 10 1 6-4 2h-4l-1-7z" fill="#FEFEFE"/>
<path transform="translate(1095,385)" d="m0 0h1l1 6v16l-5-5-9-11-1-2 4 2 3 3 3-3 2-1z" fill="#CDCECF"/>
<path transform="translate(1657,1260)" d="m0 0h1v82l-1 6-2-1-2-5-1-4 4 3z" fill="#B0B2B3"/>
<path transform="translate(761,679)" d="m0 0h2l-1 6-6 9-4 2-4 4-5 3 2-4 10-13z" fill="#E9E9EA"/>
<path transform="translate(376,1243)" d="m0 0h12l10 2v2l-7 1h-12l-6 2-1-4-2-1z" fill="#59595E"/>
<path transform="translate(931,359)" d="m0 0 1 3-1 3v18h-2v-2h-2l1 3-4 4v-8l5-20z" fill="#56565C"/>
<path transform="translate(251,1382)" d="m0 0 2 1 1 15-2-3-3 1-5 16-4 16-1-4 4-18 3-11h2z" fill="#BFC2C5"/>
<path transform="translate(214,1129)" d="m0 0h44v1l-32 1-9 2h-18l-1-2 15-1z" fill="#47464C"/>
<path transform="translate(1494,642)" d="m0 0 10 3 37 15 10 4-3 1-5-2-8-2-25-11-15-6z" fill="#BFC2C5"/>
<path transform="translate(1394,322)" d="m0 0 5 2 12 7 11 6 13 8v3l-5-2-12-8-23-13z" fill="#545258"/>
<path transform="translate(1394,412)" d="m0 0 11 1 42 9 11 3v1h-7l-18-4-16-4-23-5z" fill="#BCBEBF"/>
<path transform="translate(985,1445)" d="m0 0h2v10l-3 7-5 5-3-3 2-5 6-10z" fill="#9AD1F0"/>
<path transform="translate(1272,683)" d="m0 0 6 3 8 9-1 7-4-2-8-12z" fill="#DFEBEE"/>
<path transform="translate(857,1436)" d="m0 0 2 3 4 18v7h-1l-1-6v16h-1l-3-24-1-12z" fill="#B0E3FD"/>
<path transform="translate(1194,1149)" d="m0 0 2 2-4 1 19 1v1h-40l-1-2 11-2z" fill="#BBC2C8"/>
<path transform="translate(508,556)" d="m0 0 4 1-9 4-10 4-14 3-17 5-4-1 36-11z" fill="#B9BBBC"/>
<path transform="translate(536,380)" d="m0 0h2v3h-3v4h-3l-1 4-13 13-1-4 7-8z" fill="#525257"/>
<path transform="translate(704,1466)" d="m0 0h1v25l-1 16-6 3-16-1v-2l20-1z" fill="#E6F9FE"/>
<path transform="translate(1933,1128)" d="m0 0h3l-1 4-5-1-74-1v-1z" fill="#4C4B51"/>
<path transform="translate(1069,1356)" d="m0 0h3l1 6-2-2-2 6v7l-1 4-2 21-2 9h-1l1-15 2-25z" fill="#BABEC1"/>
<path transform="translate(474,573)" d="m0 0 4 1-32 7-11 2h-9l2-2 11-2 9-1 7-2z" fill="#ACADB0"/>
<path transform="translate(1570,535)" d="m0 0 9 1 34 11v2l2 1-9-2-36-12z" fill="#B8B9BB"/>
<path transform="translate(1529,1502)" d="m0 0h19v3l-4 3-15-1-3-3z" fill="#91D7FE"/>
<path transform="translate(391,710)" d="m0 0 5 2 15 10 9 5 11 7-4 1-16-10-7-5-9-5-4-4z" fill="#504F55"/>
<path transform="translate(1076,347)" d="m0 0 4 1 5 6 3 4v4l2 1 2 4-1 4-4-5-8-13-3-4z" fill="#4A474E"/>
<path transform="translate(1912,451)" d="m0 0 6 1 7 2 2 5-8 8v-3l1-9-8-1h-6v-2z" fill="#54545A"/>
<path transform="translate(1083,329)" d="m0 0 4 2 6 7 7 11v4l-3-1-3-6-5-6-1-3-6-5z" fill="#56555A"/>
<path transform="translate(1850,1275)" d="m0 0 7 1 14 5v1h-12l-9-2-4 4 2-6z" fill="#B7BCC2"/>
<path transform="translate(767,606)" d="m0 0 5 2 1 3-4 2-5 2-5-3v-2l-2-1 3-2z" fill="#E5F7FC"/>
<path transform="translate(589,1372)" d="m0 0h4l-1 5-13 4-5 1 2-5 9-3z" fill="#93D8FD"/>
<path transform="translate(1749,1246)" d="m0 0h12l3 1-1 5h-4l-9-1-5-3z" fill="#545459"/>
<path transform="translate(1020,1611)" d="m0 0h21v1l-15 2-1 3-1-3-3 1-4-1-3 1-3 4 1-5h-16v-1l18-1z" fill="#B5B6B8"/>
<path transform="translate(1067,701)" d="m0 0h2l3 7v2h-2l-1 3-1 19h-1l-1-10v-20z" fill="#AFB0B2"/>
<path transform="translate(655,1494)" d="m0 0h29v1l-20 2h-16v8h-1v-9l1-1z" fill="#AFE2FD"/>
<path transform="translate(1380,310)" d="m0 0 4 1 4 2 1 4 3 1-1 1 2 1v2l-5-1-11-6v-2h3z" fill="#58585D"/>
<path transform="translate(1288,1280)" d="m0 0h19l4 2-2 4-1-1-14-2-6-1-1 3z" fill="#BDD9E8"/>
<path transform="translate(457,843)" d="m0 0h1l3 19v5l-2-4-2-10-3 3-3-3v-6l5-2z" fill="#AEAFB1"/>
<path transform="translate(356,687)" d="m0 0 5 2 15 10 11 7 2 3-5-1-13-9-15-10z" fill="#59575D"/>
<path transform="translate(829,1353)" d="m0 0 1 4h2l3 26v6h-2l-4-28z" fill="#B4B9BD"/>
<path transform="translate(1116,1321)" d="m0 0h1l6 29v6l-2-1-5-22v-5h-2l-3-5 4 1z" fill="#D2D3D3"/>
<path transform="translate(558,549)" d="m0 0 4 1-8 3-31 9-3-1 4-2z" fill="#C2C3C4"/>
<path transform="translate(291,637)" d="m0 0 8 6 15 12 1 2-5-1v-2l-4-2-11-8-6-5z" fill="#515055"/>
<path transform="translate(542,1744)" d="m0 0 4 1 15 10 8 5 2 4-5-2-19-13-5-3z" fill="#5D5B60"/>
<path transform="translate(1026,1652)" d="m0 0 2 4 1 1 9 1-4 8-4-3h-4l-3 3 1-5h2z" fill="#C7C8C9"/>
<path transform="translate(1046,1492)" d="m0 0 2 1-4 3-10 3-11 2-3 1 2-4 4-2 15-2z" fill="#B5E5FD"/>
<path transform="translate(1785,1483)" d="m0 0 2 1v22h-11v-1h9l-1-10-8-1 4-2 4-1z" fill="#ACE1FD"/>
<path transform="translate(251,1379)" d="m0 0h2l1 2 1 10v31h-1l-1-28-1-11-4 12-1-3 3-12z" fill="#BABEC2"/>
<path transform="translate(814,179)" d="m0 0h49v1l-25 1-3 1-4-1v2l-7-2-10-1z" fill="#535358"/>
<path transform="translate(1850,1279)" d="m0 0 9 2 13 1v2l-8 1-15-1-3 3 1-4z" fill="#BFE8FC"/>
<path transform="translate(606,1020)" d="m0 0 10 3 8 3v1h-15l-5-3v-2h3z" fill="#B4B7BB"/>
<path transform="translate(1583,577)" d="m0 0 10 1 12 4 1 2-15-2-12-2z" fill="#C4C5C5"/>
<path transform="translate(603,527)" d="m0 0 2 1-12 5-18 6-5 1-1-2 21-7z" fill="#BEBFC0"/>
<path transform="translate(1433,1021)" d="m0 0h5l-5 4-26 6-3-1 13-4z" fill="#D2D3D3"/>
<path transform="translate(425,1630)" d="m0 0 5 5 11 13 5 6 2 4-4-2-12-14-7-9z" fill="#66666A"/>
<path transform="translate(115,1595)" d="m0 0 7 1-3 1v4h32v1h-46v-1l11-1 2 1v-2l-4-1z" fill="#515157"/>
<path transform="translate(97,445)" d="m0 0 5 2 3 4 1 3 8 7 3 3-1 2-4-3-5-4-9-11z" fill="#545359"/>
<path transform="translate(569,1760)" d="m0 0 14 8 8 5v2l-5-1-15-9z" fill="#57565B"/>
<path transform="translate(502,656)" d="m0 0 3 1h-2v2l-27 10-7 1 2-2 19-7z" fill="#C0C1C2"/>
<path transform="translate(528,646)" d="m0 0h5l-4 3-11 4-12 5-3-1h2v-2z" fill="#C5C6C7"/>
<path transform="translate(97,1136)" d="m0 0 3 2v20l-3 2z" fill="#505056"/>
<path transform="translate(1104,1279)" d="m0 0 2 3 3 9-1 7-2-3-4-9-2-1 1-3h3z" fill="#D2D3D3"/>
<path transform="translate(1521,558)" d="m0 0h8l24 8-4 1-28-8z" fill="#C0C3C5"/>
<path transform="translate(705,283)" d="m0 0v3l-3 1v2h-5l-5 3h-5l2-4 11-4z" fill="#707073"/>
<path transform="translate(159,510)" d="m0 0 4 2 9 9-2 4-12-12z" fill="#434046"/>
<path transform="translate(1275,1494)" d="m0 0 34 1v1l-9 1h-20-4z" fill="#B3E4FD"/>
<path transform="translate(432,736)" d="m0 0 5 2 11 6 11 7-3 1-16-9-8-5z" fill="#59575D"/>
<path transform="translate(1081,1450)" d="m0 0 2 2 4 25 2 4-3-1-2-5-2-12-4-4v-2h4z" fill="#BFE7FB"/>
<path transform="translate(1051,1679)" d="m0 0 3 3 2 6 14 1-1 2-7 3-5-1-6-12z" fill="#C2C4C6"/>
<path transform="translate(841,1446)" d="m0 0 2 1 2 8v10l-1 10h-1l-2-22z" fill="#BAD4E1"/>
<path transform="translate(781,1449)" d="m0 0h7l-2 2h-5l-1 15-2 11-2 1v-9l2-4 1-13z" fill="#BBC6CD"/>
<path transform="translate(320,661)" d="m0 0 6 2 11 9 6 4-4 1-12-9-7-5z" fill="#4F4D53"/>
<path transform="translate(532,552)" d="m0 0h2v5l-11 3-3-1 1-3z" fill="#F6FCFE"/>
<path transform="translate(860,1456)" d="m0 0 2 2 2 15v12l-2-4-2-18z" fill="#91D7FE"/>
<path transform="translate(1350,1404)" d="m0 0 4 1-2 2h-19l-19 1v6h-1v-7l4-1z" fill="#BCBEC0"/>
<path transform="translate(996,1310)" d="m0 0 2 4 1 8v13l-10-5-1-2 10 3-2-12z" fill="#C0E9FD"/>
<path transform="translate(1500,438)" d="m0 0 11 2 15 4 1 2-8-1-19-5z" fill="#BCBDBE"/>
<path transform="translate(710,277)" d="m0 0h6l2 2-9 3-1 2-8 1-4-1 10-4 2-2z" fill="#515157"/>
<path transform="translate(1040,954)" d="m0 0 1 4 10-2-1 4-2 2v2l-7-1z" fill="#BEBFC1"/>
<path transform="translate(949,381)" d="m0 0h3l1 4 2 2-8 8-4 3 1-4 2-4h2l2-5 1-3z" fill="#F0F5F6"/>
<path transform="translate(1144 1e3)" d="m0 0 10 2 14 4-2 2h-6l-9-4-7-3z" fill="#BEC0C1"/>
<path transform="translate(1574,674)" d="m0 0 6 2 8 4v1h-7l-16-4v-1l11 1-2-1z" fill="#BCBEC0"/>
<path transform="translate(472,1483)" d="m0 0h2l2 3-1 19 1 3-3-1z" fill="#E5F8FE"/>
<path transform="translate(1531,1247)" d="m0 0h19v8l-5-3-2-3-12-1z" fill="#515157"/>
<path transform="translate(800,253)" d="m0 0h21l-3 2-6 1h-11z" fill="#49474D"/>
<path transform="translate(1339,1468)" d="m0 0 2 1-6 7-9 6-2-1-1-2 8-4z" fill="#D2E0E6"/>
<path transform="translate(251,1382)" d="m0 0 2 1 1 15-2-3-3 1-2 2 2-9z" fill="#CFD7DB"/>
<path transform="translate(1313,1308)" d="m0 0 3 4 3 9v1h-6z" fill="#A6A7A9"/>
<path transform="translate(216,1130)" d="m0 0h10v1l-9 2h-18l-1-2z" fill="#515157"/>
<path transform="translate(723,1265)" d="m0 0h2l4 9v2l-6-2-2-1v-5z" fill="#C2E7F8"/>
<path transform="translate(1651,559)" d="m0 0 7 1 19 5v1h-8l-18-5z" fill="#C0C1C3"/>
<path transform="translate(1317,284)" d="m0 0h7l8 3v3l-6-1-9-3z" fill="#515157"/>
<path transform="translate(1083,1454)" d="m0 0 2 4 4 18 3 5-4-1-2-3-3-17z" fill="#BAC0C6"/>
<path transform="translate(819,969)" d="m0 0h2l9 11 9 8-3 1-13-13-4-5z" fill="#57565B"/>
<path transform="translate(1554,573)" d="m0 0 10 1 4-1 10 3v1h-12l-12-3z" fill="#D7DCDD"/>
<path transform="translate(1012,1660)" d="m0 0 11 1 1 3v6l-2-3-7-3-3-2z" fill="#B3B4B6"/>
<path transform="translate(857,1436)" d="m0 0 2 3 2 8-1 4-1 6h-1l-2-19z" fill="#C0EAFE"/>
<path transform="translate(1709,709)" d="m0 0h2v12l-5-5-1-4z" fill="#4F4E54"/>
<path transform="translate(978,691)" d="m0 0h1l-1 12-2 22h-1v-26z" fill="#C2C5C7"/>
<path transform="translate(485,566)" d="m0 0h6l-1 3-12 3h-3v-2z" fill="#F1FBFE"/>
<path transform="translate(531,551)" d="m0 0 1 2-18 6-10 1 2-2z" fill="#D2D3D3"/>
<path transform="translate(253,605)" d="m0 0 6 3v2l4 2 5 6-4-1-10-9z" fill="#4E4D52"/>
<path transform="translate(1479,433)" d="m0 0h7l14 4v2l-8-1-13-4z" fill="#B8BABB"/>
<path transform="translate(637,1796)" d="m0 0 10 3 10 5-4 1-15-6z" fill="#5A595E"/>
<path transform="translate(1437,1436)" d="m0 0h2v3h-2v7l-4-2-1-1v-5z" fill="#C1E8FB"/>
<path transform="translate(1932,446)" d="m0 0h4l-2 4-3 4h-2l-4-5z" fill="#434045"/>
<path transform="translate(1462,366)" d="m0 0 7 6 6 6v2l-4-2-10-9z" fill="#515055"/>
<path transform="translate(765,183)" d="m0 0 11 1v3l-11-1-2 1-5-2v-1z" fill="#57575D"/>
<path transform="translate(1657,1322)" d="m0 0h1v20l-1 6-2-1-2-5-1-4 4 3z" fill="#B8BBBE"/>
<path transform="translate(931,433)" d="m0 0 2 1 4 7 1 3h2l4 7h-3l-10-14z" fill="#525157"/>
<path transform="translate(370,1339)" d="m0 0h1l1 16-1 10h-1l-1-8v-14z" fill="#D0D4D6"/>
<path transform="translate(817,1266)" d="m0 0 2 4 1 6-1 2h2l1 8-1 4-2-4-2-13z" fill="#BCC2C6"/>
<path transform="translate(628,929)" d="m0 0 2 1-1 2 3-1-1 4-2 5-3 1v-8z" fill="#A7A8AA"/>
<path transform="translate(791,1352)" d="m0 0 3 3-3 11-1 9h-1v-10l1-11z" fill="#BFC6CA"/>
<path transform="translate(828,1337)" d="m0 0h2l1 10v10l-3-6z" fill="#B7BDC2"/>
<path transform="translate(1108,1295)" d="m0 0h2l3 10v4h-3l-2-7z" fill="#C5CACD"/>
<path transform="translate(943,451)" d="m0 0 3 1 7 8 2 3-3 1-9-10z" fill="#4B494E"/>
<path transform="translate(1883,1253)" d="m0 0 5 2 10 10-1 2-8-8-6-2-1-3z" fill="#535359"/>
<path transform="translate(493,567)" d="m0 0 6 1v1l-16 4h-6l1-2 12-3z" fill="#C0C1C2"/>
<path transform="translate(430,1482)" d="m0 0 2 1-8 6-3 2h-7l3-2 8-4z" fill="#AAE0FD"/>
<path transform="translate(716,1300)" d="m0 0 4 2 6 2v1l-13 1-3 1v-2l4-1z" fill="#B1E3FD"/>
<path transform="translate(1272,683)" d="m0 0 6 3 3 4-5 2-4-5z" fill="#D8DBDD"/>
<path transform="translate(929,395)" d="m0 0h2l2 6-4 1-2 4-1-4v-2h2l-1-4z" fill="#515157"/>
<path transform="translate(516,1724)" d="m0 0 4 1 9 8-3 1-10-8z" fill="#56555B"/>
<path transform="translate(1031,572)" d="m0 0 2 3v2l7-1-2 4-10-1h-2v-2h4z" fill="#C0C4C6"/>
<path transform="translate(1673,566)" d="m0 0h9l13 3v1h-10l-12-3z" fill="#BCBDBF"/>
<path transform="translate(1509,553)" d="m0 0 8 1 9 3v1h-8l-9-3z" fill="#BBBEC0"/>
<path transform="translate(515,1038)" d="m0 0 5 2 11 7-4 1-12-8z" fill="#626166"/>
<path transform="translate(588,1017)" d="m0 0 18 2v1l-10 1-1 2-7-5z" fill="#AAACAE"/>
<path transform="translate(1574,575)" d="m0 0h7l4 2-3 2h-8l-4-2z" fill="#C8CACB"/>
<path transform="translate(536,380)" d="m0 0h2v3h-3v4l-5 2-4 4-2-1z" fill="#5C5C61"/>
<path transform="translate(449,1660)" d="m0 0 4 2 6 6-1 3-6-5-3-4z" fill="#5F5F64"/>
<path transform="translate(1512,1574)" d="m0 0h13v3h-13l-2-2z" fill="#B7BABE"/>
<path transform="translate(1051,1476)" d="m0 0h2l1 10-5 6v-3l3-5v-3l-4-2z" fill="#BAE7FD"/>
<path transform="translate(1193,690)" d="m0 0 3 3v7l3 11-1 3-4-13z" fill="#C0C2C4"/>
<path transform="translate(542,1744)" d="m0 0 4 1 11 7-4 1-11-7z" fill="#504E54"/>
<path transform="translate(630,1578)" d="m0 0h12l3 2-10 1-8-1z" fill="#FEFEFE"/>
<path transform="translate(993,1318)" d="m0 0 2 1-1 7-3 2-3-2 2-5z" fill="#91D7FE"/>
<path transform="translate(761,679)" d="m0 0h2l-1 6-2 2-1-2-6 5 2-4z" fill="#C5C7C8"/>
<path transform="translate(1439,421)" d="m0 0 11 2 8 2v1h-7l-12-3z" fill="#BEBFC0"/>
<path transform="translate(1434,346)" d="m0 0 5 2 9 6-3 2-10-7z" fill="#4E4C52"/>
<path transform="translate(1058,1454)" d="m0 0 1 2-1 2v7l-6-1 2-5z" fill="#B7BDC3"/>
<path transform="translate(924,1290)" d="m0 0 2 1 1 4-3 8h-1v-10z" fill="#FEFEFE"/>
<path transform="translate(123,1247)" d="m0 0h17v1l-13 2-4 1z" fill="#57575C"/>
<path transform="translate(1029,301)" d="m0 0h8l2 1v2h-9l-6-1v-1z" fill="#48464C"/>
<path transform="translate(438,1646)" d="m0 0 7 6 3 6-4-2-6-7z" fill="#56555B"/>
<path transform="translate(1632,1503)" d="m0 0 3 1 1 4-1 1h-5l-1-3z" fill="#91D7FE"/>
<path transform="translate(1921,1328)" d="m0 0h1l1 11-4 2 1-11z" fill="#91D7FE"/>
<path transform="translate(432,736)" d="m0 0 5 2 9 5-2 2-12-7z" fill="#56555A"/>
<path transform="translate(417,727)" d="m0 0 4 1 10 6-4 1-10-6z" fill="#4E4C52"/>
<path transform="translate(1067,701)" d="m0 0h2l2 5-4-2v18h-1v-20z" fill="#CECFCF"/>
<path transform="translate(1083,329)" d="m0 0 4 2 4 4-1 2-4-1-4-4z" fill="#5C5C61"/>
<path transform="translate(987,1062)" d="m0 0 8 1v4l-8-1v-3z" fill="#BDBFC1"/>
<path transform="translate(1593,579)" d="m0 0 9 2 4 2-3 1-12-2z" fill="#ADAFB1"/>
<path transform="translate(413,549)" d="m0 0h4v2l-14 4-3-1z" fill="#C1C2C3"/>
<path transform="translate(153,503)" d="m0 0 7 6-3 3-4-4z" fill="#4A484E"/>
<path transform="translate(523,395)" d="m0 0h2l-2 4-6 5 1-6z" fill="#4E4D53"/>
<path transform="translate(942,339)" d="m0 0 2 3-2 3h-2v2h-3l1-5z" fill="#59595E"/>
<path transform="translate(622,1790)" d="m0 0 6 1 6 3-1 2-9-3-2-1z" fill="#525157"/>
<path transform="translate(721,1273)" d="m0 0 6 2v2l-6 3-2-1z" fill="#A9DFFD"/>
<path transform="translate(1090,1251)" d="m0 0 4 4 2 6-4-2-3-5z" fill="#717174"/>
<path transform="translate(1912,451)" d="m0 0 6 1 2 2-3 1-5-1h-6v-2z" fill="#57565C"/>
<path transform="translate(1092,385)" d="m0 0h3v7l-4 1-2 2-1-2 3-4z" fill="#FEFEFE"/>
<path transform="translate(947,384)" d="m0 0v3l-5 5h-3v-5h5z" fill="#FEFEFE"/>
<path transform="translate(609,1784)" d="m0 0 4 1 8 3v2l-8-2-4-2z" fill="#545359"/>
<path transform="translate(569,1760)" d="m0 0 10 6-1 2-5-2-4-4z" fill="#504E53"/>
<path transform="translate(493,1705)" d="m0 0 4 1 5 5 2 3-4-1-7-6z" fill="#606065"/>
<path transform="translate(1619,1616)" d="m0 0 1 3-6 8h-2l2-5z" fill="#58585D"/>
<path transform="translate(1887,1471)" d="m0 0h2l-1 3-8 6-3-1 5-4 5-2z" fill="#BCD8E7"/>
<path transform="translate(1921,1339)" d="m0 0h2l-1 4-9 3-1-2 8-4z" fill="#BCC3C8"/>
<path transform="translate(1256,597)" d="m0 0v3l-2 4 4 2 1 4-6-5-1-3z" fill="#CBD2D5"/>
<path transform="translate(1636,556)" d="m0 0h8l7 2v2l-8-1-7-2z" fill="#BABBBD"/>
<path transform="translate(1394,322)" d="m0 0 5 2 7 4v2l-6-2-6-4z" fill="#605F64"/>
<path transform="translate(1646,1474)" d="m0 0 4 2v3l-5 1-1-4z" fill="#FCFDFE"/>
<path transform="translate(1491,1470)" d="m0 0h1l1 12-3-1-1-6z" fill="#C0EAFE"/>
<path transform="translate(829,1353)" d="m0 0 1 4h2v8l-2 2-1-6z" fill="#B0B4B8"/>
<path transform="translate(1116,1321)" d="m0 0h1l1 10-2 1v-4h-2l-3-5 4 1z" fill="#CCD3D6"/>
<path transform="translate(391,710)" d="m0 0 5 2 6 4 1 3-5-2-6-4z" fill="#5B5A5F"/>
<path transform="translate(159,510)" d="m0 0 4 2v4h2l-1 3-6-6z" fill="#454348"/>
<path transform="translate(1096,391)" d="m0 0h1v16l-5-5 1-2 3 2z" fill="#AEAFB1"/>
<path transform="translate(1426,340)" d="m0 0 9 5v3l-5-2-6-4z" fill="#605E64"/>
<path transform="translate(752,185)" d="m0 0h9l-3 2-5 2h-3v-3z" fill="#4F4F55"/>
</svg>
